<svg width="360" height="800" viewBox="0 0 360 800" fill="none" xmlns="http://www.w3.org/2000/svg">
<mask id="mask0_10_203" style="mask-type:alpha" maskUnits="userSpaceOnUse" x="0" y="0" width="360" height="800">
<rect width="360" height="800" fill="white"/>
</mask>
<g mask="url(#mask0_10_203)">
<path opacity="0.1" d="M40.9708 698.82C42.9478 702.012 43.8989 706.14 43.824 711.206C43.7768 716.153 42.8197 723.521 40.9528 733.31C56.5984 738.475 66.1287 743.814 69.5435 749.328C71.7452 752.883 72.653 756.536 72.2669 760.288C71.9084 763.923 69.6979 766.999 65.6353 769.515C62.8061 771.267 58.4425 772.163 52.5448 772.202C46.647 772.242 39.9286 771.685 32.3894 770.533C27.4386 786.849 22.279 796.669 16.9107 799.994C13.0657 802.376 9.38626 802.999 5.87222 801.863C2.31324 800.654 -0.612025 798.2 -2.90357 794.5C-6.36335 788.914 -6.9066 777.908 -4.53331 761.482C-13.7935 758.686 -20.5763 756.162 -24.8818 753.91C-29.2322 751.586 -32.4184 748.792 -34.4404 745.527C-37.1363 741.174 -37.811 736.925 -36.4645 732.778C-35.0904 728.515 -32.4446 725.169 -28.5271 722.743C-25.9881 721.17 -23.5507 720.163 -21.2152 719.72C-18.8797 719.277 -15.9447 719.316 -12.41 719.837C-8.80285 720.313 -3.56993 721.388 3.28872 723.062C4.93522 716.321 6.42144 711.185 7.74736 707.653C9.10091 704.005 10.5324 701.211 12.0418 699.272C13.5063 697.261 15.4355 695.514 17.8295 694.031C20.3686 692.459 23.0633 691.543 25.9137 691.283C28.8366 690.978 31.6387 691.451 34.3201 692.701C37.0015 693.951 39.2184 695.991 40.9708 698.82Z" fill="#780000"/>
<path opacity="0.1" d="M117.651 651.475C109.885 651.56 102.675 649.64 96.0188 645.715C89.4481 641.789 84.1574 636.413 80.1468 629.587C76.2214 622.675 74.1734 615.037 74.0028 606.675C73.9174 598.653 75.7948 591.229 79.6348 584.403C83.4748 577.576 88.7654 572.157 95.5068 568.147C102.248 564.051 109.629 562.003 117.651 562.003C125.501 561.917 132.755 563.88 139.411 567.891C146.152 571.901 151.485 577.405 155.411 584.403C159.336 591.4 161.299 599.123 161.299 607.571C161.299 615.507 159.336 622.803 155.411 629.459C151.485 636.115 146.152 641.405 139.411 645.331C132.755 649.256 125.501 651.304 117.651 651.475ZM118.035 626.515C121.96 626.515 125.288 625.107 128.019 622.291C130.835 619.475 132.2 615.805 132.115 611.283C132.115 606.675 130.749 602.963 128.019 600.147C125.288 597.331 121.96 595.923 118.035 595.923C114.109 595.923 110.781 597.331 108.051 600.147C105.32 602.963 103.955 606.675 103.955 611.283C103.955 615.805 105.32 619.475 108.051 622.291C110.781 625.107 114.109 626.515 118.035 626.515Z" fill="#003049"/>
<path opacity="0.1" d="M0.650787 266.475C-7.11455 266.56 -14.3252 264.64 -20.9812 260.715C-27.5519 256.789 -32.8426 251.413 -36.8532 244.587C-40.7786 237.675 -42.8266 230.037 -42.9972 221.675C-43.0826 213.653 -41.2052 206.229 -37.3652 199.403C-33.5252 192.576 -28.2346 187.157 -21.4932 183.147C-14.7519 179.051 -7.37055 177.003 0.650787 177.003C8.50145 176.917 15.7548 178.88 22.4108 182.891C29.1521 186.901 34.4855 192.405 38.4108 199.403C42.3361 206.4 44.2988 214.123 44.2988 222.571C44.2988 230.507 42.3361 237.803 38.4108 244.459C34.4855 251.115 29.1521 256.405 22.4108 260.331C15.7548 264.256 8.50145 266.304 0.650787 266.475ZM1.03479 241.515C4.96012 241.515 8.28812 240.107 11.0188 237.291C13.8348 234.475 15.2001 230.805 15.1148 226.283C15.1148 221.675 13.7495 217.963 11.0188 215.147C8.28812 212.331 4.96012 210.923 1.03479 210.923C-2.89055 210.923 -6.21855 212.331 -8.94921 215.147C-11.6799 217.963 -13.0452 221.675 -13.0452 226.283C-13.0452 230.805 -11.6799 234.475 -8.94921 237.291C-6.21855 240.107 -2.89055 241.515 1.03479 241.515Z" fill="#003049"/>
<path opacity="0.1" d="M347.651 97.4747C339.885 97.56 332.675 95.64 326.019 91.7147C319.448 87.7893 314.157 82.4133 310.147 75.5867C306.221 68.6747 304.173 61.0373 304.003 52.6747C303.917 44.6533 305.795 37.2293 309.635 30.4027C313.475 23.576 318.765 18.1573 325.507 14.1467C332.248 10.0507 339.629 8.00267 347.651 8.00267C355.501 7.91733 362.755 9.88 369.411 13.8907C376.152 17.9013 381.485 23.4053 385.411 30.4027C389.336 37.4 391.299 45.1227 391.299 53.5707C391.299 61.5067 389.336 68.8027 385.411 75.4587C381.485 82.1147 376.152 87.4053 369.411 91.3307C362.755 95.256 355.501 97.304 347.651 97.4747ZM348.035 72.5147C351.96 72.5147 355.288 71.1067 358.019 68.2907C360.835 65.4747 362.2 61.8053 362.115 57.2827C362.115 52.6747 360.749 48.9627 358.019 46.1467C355.288 43.3307 351.96 41.9227 348.035 41.9227C344.109 41.9227 340.781 43.3307 338.051 46.1467C335.32 48.9627 333.955 52.6747 333.955 57.2827C333.955 61.8053 335.32 65.4747 338.051 68.2907C340.781 71.1067 344.109 72.5147 348.035 72.5147Z" fill="#003049"/>
<path opacity="0.1" d="M400.971 475.82C402.948 479.012 403.899 483.141 403.824 488.206C403.777 493.153 402.82 500.521 400.953 510.31C416.598 515.475 426.129 520.814 429.544 526.328C431.745 529.883 432.653 533.536 432.267 537.288C431.908 540.923 429.698 543.999 425.635 546.515C422.806 548.267 418.443 549.163 412.545 549.203C406.647 549.242 399.929 548.685 392.389 547.533C387.439 563.849 382.279 573.669 376.911 576.994C373.066 579.376 369.386 579.999 365.872 578.863C362.313 577.654 359.388 575.2 357.096 571.5C353.637 565.914 353.093 554.908 355.467 538.483C346.207 535.686 339.424 533.162 335.118 530.91C330.768 528.586 327.582 525.792 325.56 522.527C322.864 518.174 322.189 513.925 323.535 509.778C324.91 505.515 327.555 502.17 331.473 499.743C334.012 498.171 336.449 497.163 338.785 496.72C341.12 496.277 344.055 496.316 347.59 496.837C351.197 497.313 356.43 498.388 363.289 500.062C364.935 493.321 366.421 488.185 367.747 484.654C369.101 481.005 370.532 478.211 372.042 476.272C373.506 474.261 375.436 472.514 377.83 471.031C380.369 469.459 383.063 468.543 385.914 468.283C388.837 467.978 391.639 468.451 394.32 469.701C397.002 470.951 399.218 472.991 400.971 475.82Z" fill="#780000"/>
<path opacity="0.1" d="M337.704 189.256C337.704 193.011 336.339 197.021 333.608 201.288C330.963 205.469 326.269 211.229 319.528 218.568C330.109 231.197 335.4 240.755 335.4 247.24C335.4 251.421 334.248 255.005 331.944 257.992C329.725 260.893 326.227 262.344 321.448 262.344C318.12 262.344 313.939 260.808 308.904 257.736C303.869 254.664 298.451 250.653 292.648 245.704C279.848 256.968 270.291 262.6 263.976 262.6C259.453 262.6 255.997 261.192 253.608 258.376C251.219 255.475 250.024 251.848 250.024 247.496C250.024 240.925 255.357 231.283 266.024 218.568C259.624 211.315 255.187 205.597 252.712 201.416C250.237 197.149 249 193.096 249 189.256C249 184.136 250.664 180.168 253.992 177.352C257.405 174.451 261.416 173 266.024 173C269.011 173 271.613 173.427 273.832 174.28C276.051 175.133 278.525 176.712 281.256 179.016C284.072 181.32 287.955 184.989 292.904 190.024C297.853 185.16 301.821 181.576 304.808 179.272C307.88 176.883 310.568 175.261 312.872 174.408C315.176 173.469 317.736 173 320.552 173C323.539 173 326.312 173.64 328.872 174.92C331.517 176.2 333.651 178.077 335.272 180.552C336.893 183.027 337.704 185.928 337.704 189.256Z" fill="#780000"/>
<path opacity="0.1" d="M135.647 -20.104C135.647 -16.3493 134.282 -12.3387 131.551 -8.07199C128.906 -3.89066 124.212 1.86935 117.471 9.20801C128.052 21.8373 133.343 31.3947 133.343 37.88C133.343 42.0613 132.191 45.6453 129.887 48.632C127.668 51.5333 124.17 52.984 119.391 52.984C116.063 52.984 111.882 51.448 106.847 48.376C101.812 45.304 96.3937 41.2934 90.5911 36.344C77.7911 47.608 68.2337 53.24 61.9191 53.24C57.3964 53.24 53.9404 51.832 51.5511 49.016C49.1617 46.1147 47.9671 42.488 47.9671 38.136C47.9671 31.5653 53.3004 21.9227 63.9671 9.20801C57.5671 1.95468 53.1297 -3.76266 50.6551 -7.94399C48.1804 -12.2107 46.9431 -16.264 46.9431 -20.104C46.9431 -25.224 48.6071 -29.192 51.9351 -32.008C55.3484 -34.9093 59.3591 -36.36 63.9671 -36.36C66.9537 -36.36 69.5564 -35.9333 71.7751 -35.08C73.9937 -34.2267 76.4684 -32.648 79.1991 -30.344C82.0151 -28.04 85.8977 -24.3707 90.8471 -19.336C95.7964 -24.2 99.7644 -27.784 102.751 -30.088C105.823 -32.4773 108.511 -34.0987 110.815 -34.952C113.119 -35.8907 115.679 -36.36 118.495 -36.36C121.482 -36.36 124.255 -35.72 126.815 -34.44C129.46 -33.16 131.594 -31.2827 133.215 -28.808C134.836 -26.3333 135.647 -23.432 135.647 -20.104Z" fill="#780000"/>
<path opacity="0.1" d="M348.651 775.475C340.885 775.56 333.675 773.64 327.019 769.715C320.448 765.789 315.157 760.413 311.147 753.587C307.221 746.675 305.173 739.037 305.003 730.675C304.917 722.653 306.795 715.229 310.635 708.403C314.475 701.576 319.765 696.157 326.507 692.147C333.248 688.051 340.629 686.003 348.651 686.003C356.501 685.917 363.755 687.88 370.411 691.891C377.152 695.901 382.485 701.405 386.411 708.403C390.336 715.4 392.299 723.123 392.299 731.571C392.299 739.507 390.336 746.803 386.411 753.459C382.485 760.115 377.152 765.405 370.411 769.331C363.755 773.256 356.501 775.304 348.651 775.475ZM349.035 750.515C352.96 750.515 356.288 749.107 359.019 746.291C361.835 743.475 363.2 739.805 363.115 735.283C363.115 730.675 361.749 726.963 359.019 724.147C356.288 721.331 352.96 719.923 349.035 719.923C345.109 719.923 341.781 721.331 339.051 724.147C336.32 726.963 334.955 730.675 334.955 735.283C334.955 739.805 336.32 743.475 339.051 746.291C341.781 749.107 345.109 750.515 349.035 750.515Z" fill="#003049"/>
</g>
</svg>
