<svg width="182" height="128" viewBox="0 0 182 128" fill="none" xmlns="http://www.w3.org/2000/svg">
<path d="M157.262 40.5848L155.656 42.8794C155.559 43.0172 155.503 43.1792 155.494 43.3472C155.485 43.5152 155.523 43.6823 155.604 43.8298C155.685 43.9773 155.805 44.0993 155.952 44.1818C156.098 44.2644 156.265 44.3044 156.433 44.2972L159.231 44.1766L160.917 46.4134C161.018 46.5478 161.155 46.6513 161.312 46.712C161.469 46.7727 161.639 46.7883 161.805 46.7569C161.97 46.7256 162.123 46.6486 162.247 46.5346C162.371 46.4207 162.46 46.2743 162.505 46.1122L163.256 43.4134L165.904 42.5014C166.063 42.4467 166.203 42.3485 166.31 42.218C166.416 42.0876 166.483 41.93 166.505 41.7631C166.526 41.5962 166.5 41.4267 166.43 41.2737C166.36 41.1208 166.249 40.9905 166.108 40.8976L163.773 39.3503L163.724 36.5499C163.721 36.3817 163.672 36.2176 163.58 36.0762C163.489 35.9349 163.36 35.8219 163.208 35.7501C163.056 35.6783 162.886 35.6505 162.719 35.6699C162.552 35.6893 162.394 35.7551 162.262 35.8599L160.069 37.6021L157.391 36.7835C157.23 36.7344 157.059 36.7312 156.896 36.7744C156.733 36.8176 156.586 36.9054 156.471 37.0278C156.356 37.1503 156.277 37.3026 156.244 37.4675C156.21 37.6324 156.224 37.8033 156.283 37.9609L157.262 40.5848ZM118.626 29.907L115.692 34.0983C115.595 34.2361 115.539 34.3982 115.53 34.5661C115.521 34.7341 115.558 34.9013 115.639 35.0489C115.72 35.1964 115.841 35.3183 115.987 35.4009C116.134 35.4835 116.301 35.5234 116.469 35.5161L121.581 35.2959L124.66 39.3821C125.106 39.9739 126.048 39.8034 126.249 39.0809L127.619 34.1512L132.457 32.485C133.162 32.2423 133.284 31.2933 132.661 30.8813L128.396 28.0548L128.307 22.939C128.304 22.7707 128.254 22.6066 128.163 22.4653C128.072 22.3239 127.943 22.2109 127.79 22.1391C127.638 22.0673 127.469 22.0395 127.302 22.0589C127.135 22.0783 126.976 22.1441 126.845 22.2489L122.838 25.4318L117.945 23.936C117.233 23.7179 116.576 24.4142 116.837 25.1132L118.626 29.907ZM148.94 95.2646L145.601 93.0517L145.531 89.0463C145.528 88.8781 145.478 88.714 145.387 88.5727C145.296 88.4314 145.167 88.3185 145.015 88.2467C144.862 88.1748 144.693 88.1471 144.526 88.1664C144.359 88.1858 144.201 88.2515 144.069 88.3562L140.932 90.8483L137.102 89.6772C136.941 89.6279 136.769 89.6247 136.607 89.6679C136.444 89.711 136.297 89.7988 136.181 89.9213C136.066 90.0438 135.987 90.1962 135.954 90.3611C135.921 90.526 135.935 90.6969 135.993 90.8545L137.394 94.6077L135.097 97.8892C134.666 98.5044 135.135 99.339 135.874 99.307L139.876 99.1346L142.287 102.334C142.736 102.929 143.676 102.751 143.876 102.033L144.949 98.173L148.736 96.8686C148.895 96.8137 149.036 96.7155 149.142 96.5849C149.248 96.4544 149.315 96.2968 149.337 96.13C149.358 95.9631 149.332 95.7937 149.262 95.6407C149.192 95.4878 149.081 95.3575 148.94 95.2646Z" fill="#003049"/>
<path d="M24.7032 34.5848L26.3096 36.8794C26.4061 37.0172 26.4621 37.1792 26.4713 37.3472C26.4805 37.5152 26.4425 37.6823 26.3616 37.8298C26.2808 37.9773 26.1602 38.0993 26.0137 38.1818C25.8672 38.2644 25.7005 38.3044 25.5324 38.2972L22.7342 38.1766L21.0485 40.4134C20.9473 40.5478 20.8105 40.6513 20.6536 40.712C20.4967 40.7727 20.3259 40.7883 20.1605 40.7569C19.9952 40.7256 19.842 40.6486 19.7182 40.5346C19.5943 40.4207 19.5049 40.2743 19.46 40.1122L18.7098 37.4134L16.0616 36.5014C15.9025 36.4467 15.7619 36.3485 15.6557 36.218C15.5495 36.0876 15.4819 35.93 15.4606 35.7631C15.4394 35.5962 15.4652 35.4267 15.5353 35.2737C15.6053 35.1208 15.7168 34.9905 15.8571 34.8976L18.1919 33.3503L18.241 30.5499C18.2438 30.3817 18.2937 30.2176 18.385 30.0762C18.4762 29.9349 18.6053 29.8219 18.7574 29.7501C18.9096 29.6783 19.0788 29.6505 19.246 29.6699C19.4131 29.6893 19.5715 29.7551 19.7032 29.8599L21.896 31.6021L24.5745 30.7835C24.7354 30.7344 24.9068 30.7312 25.0693 30.7744C25.2319 30.8176 25.3792 30.9054 25.4945 31.0278C25.6097 31.1503 25.6885 31.3026 25.7217 31.4675C25.755 31.6324 25.7414 31.8033 25.6826 31.9609L24.7032 34.5848ZM63.3391 23.907L66.2738 28.0983C66.3703 28.2361 66.4264 28.3982 66.4356 28.5661C66.4448 28.7341 66.4068 28.9013 66.326 29.0489C66.2451 29.1964 66.1245 29.3183 65.978 29.4009C65.8314 29.4835 65.6646 29.5234 65.4965 29.5161L60.3844 29.2959L57.305 33.3821C56.8593 33.9739 55.9173 33.8034 55.7165 33.0809L54.3464 28.1512L49.5084 26.485C48.8036 26.2423 48.6818 25.2933 49.304 24.8813L53.5691 22.0548L53.6586 16.939C53.6614 16.7707 53.7113 16.6066 53.8025 16.4653C53.8938 16.3239 54.0228 16.2109 54.175 16.1391C54.3272 16.0673 54.4964 16.0395 54.6635 16.0589C54.8307 16.0783 54.9891 16.1441 55.1207 16.2489L59.1269 19.4318L64.02 17.936C64.7328 17.7179 65.3891 18.4142 65.1281 19.1132L63.3391 23.907ZM33.025 89.2646L36.3642 87.0517L36.4342 83.0463C36.4371 82.8781 36.487 82.714 36.5783 82.5727C36.6696 82.4314 36.7986 82.3185 36.9507 82.2467C37.1029 82.1748 37.2721 82.1471 37.4392 82.1664C37.6063 82.1858 37.7647 82.2515 37.8964 82.3562L41.0329 84.8483L44.8638 83.6772C45.0246 83.6279 45.1961 83.6247 45.3587 83.6679C45.5213 83.711 45.6686 83.7988 45.7839 83.9213C45.8992 84.0438 45.9779 84.1962 46.0111 84.3611C46.0443 84.526 46.0307 84.6969 45.9719 84.8545L44.5712 88.6077L46.8687 91.8892C47.2995 92.5044 46.8308 93.339 46.0915 93.307L42.0892 93.1346L39.6781 96.3338C39.2296 96.9293 38.2893 96.7515 38.0896 96.0326L37.0168 92.173L33.2291 90.8686C33.0701 90.8137 32.9297 90.7155 32.8236 90.5849C32.7175 90.4544 32.65 90.2968 32.6288 90.13C32.6075 89.9631 32.6334 89.7937 32.7034 89.6407C32.7734 89.4878 32.8848 89.3575 33.025 89.2646Z" fill="#003049"/>
<path d="M92.3457 38.5171C94.1466 39.3671 96.2956 38.5962 97.1456 36.7952C97.9956 34.9942 97.2247 32.8452 95.4237 31.9953C93.6227 31.1453 91.4737 31.9162 90.6238 33.7172C89.7738 35.5181 90.5447 37.6671 92.3457 38.5171Z" fill="#C1121F"/>
<path d="M126.326 114.362C128.127 115.212 130.276 114.441 131.126 112.64C131.976 110.839 131.205 108.69 129.404 107.84C127.603 106.99 125.454 107.761 124.604 109.562C123.754 111.363 124.525 113.512 126.326 114.362Z" fill="#C1121F"/>
<path d="M177.211 46.6725C178.562 47.31 180.174 46.7318 180.811 45.3811C181.449 44.0304 180.87 42.4187 179.52 41.7813C178.169 41.1438 176.557 41.722 175.92 43.0727C175.282 44.4233 175.861 46.035 177.211 46.6725Z" fill="#C1121F"/>
<path d="M162.408 69.59C163.759 70.2275 165.371 69.6493 166.008 68.2986C166.645 66.9479 166.067 65.3362 164.717 64.6988C163.366 64.0613 161.754 64.6395 161.117 65.9902C160.479 67.3408 161.058 68.9525 162.408 69.59Z" fill="#C1121F"/>
<path d="M109.595 16.7539C110.945 17.3914 112.557 16.8132 113.194 15.4626C113.832 14.1119 113.254 12.5002 111.903 11.8627C110.552 11.2253 108.941 11.8034 108.303 13.1541C107.666 14.5048 108.244 16.1165 109.595 16.7539Z" fill="#C1121F"/>
<path d="M100.193 100.035C101.544 100.672 103.156 100.094 103.793 98.7435C104.431 97.3928 103.852 95.7811 102.502 95.1436C101.151 94.5062 99.5393 95.0844 98.9019 96.435C98.2644 97.7857 98.8426 99.3974 100.193 100.035Z" fill="#C1121F"/>
<path d="M89.6197 32.5171C87.8187 33.3671 85.6697 32.5962 84.8197 30.7952C83.9697 28.9942 84.7407 26.8452 86.5416 25.9953C88.3426 25.1453 90.4916 25.9162 91.3416 27.7172C92.1915 29.5181 91.4206 31.6671 89.6197 32.5171Z" fill="#C1121F"/>
<path d="M55.6395 108.362C53.8386 109.212 51.6896 108.441 50.8396 106.64C49.9896 104.839 50.7605 102.69 52.5615 101.84C54.3625 100.99 56.5115 101.761 57.3614 103.562C58.2114 105.363 57.4405 107.512 55.6395 108.362Z" fill="#C1121F"/>
<path d="M4.754 40.6725C3.40333 41.31 1.79163 40.7318 1.15417 39.3811C0.516711 38.0304 1.09489 36.4187 2.44556 35.7813C3.79623 35.1438 5.40792 35.722 6.04538 37.0727C6.68284 38.4233 6.10467 40.035 4.754 40.6725Z" fill="#C1121F"/>
<path d="M19.5571 63.59C18.2065 64.2275 16.5948 63.6493 15.9573 62.2986C15.3198 60.9479 15.898 59.3362 17.2487 58.6988C18.5994 58.0613 20.2111 58.6395 20.8485 59.9902C21.486 61.3408 20.9078 62.9525 19.5571 63.59Z" fill="#C1121F"/>
<path d="M72.3707 10.7539C71.0201 11.3914 69.4084 10.8132 68.7709 9.46255C68.1335 8.11188 68.7116 6.50018 70.0623 5.86272C71.413 5.22526 73.0247 5.80344 73.6621 7.15411C74.2996 8.50478 73.7214 10.1165 72.3707 10.7539Z" fill="#C1121F"/>
<path d="M81.7721 94.0349C80.4214 94.6723 78.8097 94.0941 78.1722 92.7435C77.5348 91.3928 78.1129 89.7811 79.4636 89.1436C80.8143 88.5062 82.426 89.0844 83.0634 90.435C83.7009 91.7857 83.1227 93.3974 81.7721 94.0349Z" fill="#C1121F"/>
<path d="M116.373 48.5159C113.426 45.9915 111.063 45.2492 109.271 45.0052C108.316 44.8751 107.464 44.8776 106.593 44.8845C106.544 44.8848 106.493 44.8853 106.441 44.8858L106.439 44.8859C105.702 44.893 104.672 44.903 103.763 44.6593C102.483 44.3162 101.716 43.0266 102.05 41.7789C102.384 40.5312 103.693 39.7978 104.974 40.1409C105.158 40.1903 105.499 40.2063 106.493 40.1985L106.511 40.1984C107.376 40.1916 108.539 40.1825 109.872 40.364C112.65 40.7424 115.941 41.9119 119.654 45.1372L119.784 45.2503L119.897 45.3803C125.215 51.5277 133.823 54.4453 137.406 55.095C138.71 55.3315 139.584 56.5545 139.359 57.8268C139.134 59.099 137.895 59.9386 136.591 59.7022C132.433 58.9481 122.694 55.7222 116.373 48.5159Z" fill="#C87529"/>
<path fill-rule="evenodd" clip-rule="evenodd" d="M104.05 18.0887C103.446 17.927 102.786 17.9787 102.341 19.1238L70.1502 102.028L62.9534 105.144L83.7802 110.725C84.4327 110.9 85.1553 110.324 85.5419 109.431C85.7626 108.921 85.5746 108.347 85.2115 107.914L81.4498 102.433L104.05 18.0887Z" fill="#C87529"/>
<path d="M104.911 20.2159C105.098 19.0018 104.653 18.2503 104.05 18.0887L81.4498 102.433L85.2115 107.914C85.5746 108.347 85.7626 108.921 85.5419 109.431C85.1553 110.324 84.4327 110.9 83.7802 110.725L62.9534 105.144L59.8159 106.356C59.3018 106.554 58.8681 106.951 58.802 107.489C58.6823 108.465 59.0205 109.337 59.6781 109.513L97.1507 119.554C97.8031 119.729 98.5257 119.153 98.9124 118.26C99.1331 117.75 98.945 117.176 98.582 116.743L91.3369 108.109L104.911 20.2159Z" fill="#B06328"/>
<path fill-rule="evenodd" clip-rule="evenodd" d="M56.8527 33.5109C55.6052 33.0637 54.2362 33.6856 53.7949 34.8999C58.2659 36.7618 68.7025 39.5358 76.9995 36.3579C83.0806 34.7112 86.2592 36.3761 89.9517 38.3101C91.1393 38.9321 92.3802 39.5821 93.7879 40.1586C94.0401 39.2172 94.3932 37.8994 92.4167 36.7763C92.2323 36.7268 91.929 36.5702 91.0719 36.0664L91.0568 36.0575C90.3109 35.619 89.308 35.0294 88.0627 34.5201C85.4677 33.4588 82.0332 32.8264 77.2049 33.7631L77.0357 33.7959L76.8733 33.8522C69.1937 36.5168 60.2804 34.7396 56.8527 33.5109Z" fill="#C87529"/>
<path d="M78.3567 38.3294C82.1715 37.617 84.5889 38.1555 86.2625 38.8399C87.1548 39.2049 87.8915 39.6332 88.6422 40.0745L88.7127 40.116L88.767 40.148L88.7743 40.1524L88.7748 40.1526C89.4101 40.5277 90.2965 41.051 91.206 41.2947C92.4863 41.6377 93.0778 41.263 93.7879 40.1586C92.3802 39.5821 91.1393 38.9321 89.9517 38.3101C86.2592 36.3761 83.0806 34.7112 76.9995 36.3579C68.7025 39.5358 58.2659 36.7618 53.7949 34.8999C53.3537 36.1142 54.0073 37.4611 55.2548 37.9083C59.2327 39.3342 69.2794 41.4098 78.3567 38.3294Z" fill="#B06328"/>
<path fill-rule="evenodd" clip-rule="evenodd" d="M137.599 55.1467C138.903 55.3832 139.777 56.6062 139.552 57.8785C134.749 57.2554 124.324 54.4395 118.728 47.5389C114.284 43.0723 110.699 42.9248 106.535 42.7534C105.195 42.6983 103.795 42.6407 102.288 42.4362C102.54 41.4948 102.893 40.177 105.167 40.1926C105.351 40.242 105.692 40.258 106.686 40.2502L106.704 40.2501C107.569 40.2433 108.732 40.2342 110.065 40.4157C112.843 40.7941 116.134 41.9637 119.847 45.189L119.977 45.302L120.09 45.432C125.408 51.5794 134.016 54.497 137.599 55.1467Z" fill="#C87529"/>
<path d="M116.566 48.5676C113.619 46.0433 111.256 45.3009 109.465 45.0569C108.509 44.9268 107.657 44.9294 106.786 44.9362L106.705 44.9369L106.642 44.9375L106.633 44.9376L106.632 44.9376C105.895 44.9447 104.865 44.9547 103.956 44.711C102.676 44.368 102.351 43.7476 102.288 42.4362C103.795 42.6407 105.195 42.6983 106.535 42.7534C110.699 42.9248 114.284 43.0723 118.728 47.5389C124.324 54.4395 134.749 57.2554 139.552 57.8785C139.327 59.1507 138.088 59.9904 136.784 59.7539C132.626 58.9999 122.887 55.774 116.566 48.5676Z" fill="#B06328"/>
<path d="M95.5661 50.5225C99.8338 51.666 104.197 49.2214 105.311 45.0623C106.002 42.4831 105.282 39.8502 103.617 37.9494C104.168 40.1149 103.993 44.6659 99.6241 46.9688C94.802 49.5106 90.6117 45.9664 90.0194 45.4041C90.8546 47.8162 92.8684 49.7997 95.5661 50.5225Z" fill="#F1B244"/>
<path d="M95.0479 40.0926C94.9086 40.6125 94.3632 40.9181 93.8297 40.7751C93.2963 40.6322 92.9767 40.0949 93.116 39.575C93.2553 39.0551 93.8007 38.7495 94.3342 38.8925C94.8677 39.0354 95.1872 39.5727 95.0479 40.0926Z" fill="#FFE27A"/>
<path fill-rule="evenodd" clip-rule="evenodd" d="M99.6018 35.4611C95.3341 34.3175 90.971 36.7621 89.8565 40.9212C89.4465 42.4513 89.5334 44.0003 90.0194 45.4041C90.6117 45.9664 94.802 49.5106 99.6241 46.9688C103.993 44.6659 104.168 40.1149 103.617 37.9494C102.597 36.7851 101.223 35.8955 99.6018 35.4611ZM93.8297 40.7751C94.3632 40.9181 94.9086 40.6125 95.0479 40.0926C95.1872 39.5727 94.8677 39.0354 94.3342 38.8925C93.8007 38.7495 93.2553 39.0551 93.116 39.575C92.9767 40.0949 93.2963 40.6322 93.8297 40.7751Z" fill="#FFCB5B"/>
<path d="M115.483 94.5839C116.921 95.7804 118.575 96.6411 120.351 97.117C122.127 97.5928 123.99 97.6744 125.833 97.3571C127.677 97.0399 129.465 96.3299 131.095 95.2678C132.726 94.2057 134.167 92.8122 135.336 91.167C136.505 89.5217 137.38 87.6569 137.91 85.679L136.558 85.3168C136.586 85.2114 136.596 85.0994 136.586 84.9842L134.248 59.1566C133.61 58.9806 132.919 58.7705 132.189 58.5242L134.566 84.783C132.533 89.2096 125.871 97.3672 115.483 94.5839Z" fill="#F1B244"/>
<path d="M114.803 81.5053L120.598 83.0583C121.132 83.2012 121.451 83.7385 121.312 84.2584C121.173 84.7783 120.627 85.0839 120.094 84.9409L114.298 83.388C113.765 83.2451 113.445 82.7078 113.584 82.1879C113.724 81.668 114.269 81.3624 114.803 81.5053Z" fill="#FFE27A"/>
<path fill-rule="evenodd" clip-rule="evenodd" d="M112.358 78.4923C112.291 78.5868 112.244 78.689 112.216 78.7944L110.864 78.4321C110.334 80.41 110.159 82.4622 110.349 84.4717C110.539 86.4811 111.09 88.4084 111.971 90.1434C112.852 91.8785 114.045 93.3873 115.483 94.5839C125.871 97.3672 132.533 89.2096 134.566 84.783L114.208 79.3282L132.333 53.6072L133.554 51.4906C133.553 51.476 133.551 51.4615 133.55 51.447C133.532 51.3116 133.487 51.1854 133.421 51.0735C133.354 50.9615 133.264 50.8605 133.152 50.7783C133.082 50.7268 133.005 50.6841 132.923 50.6516C132.849 50.6223 132.773 50.6021 132.696 50.5907C132.609 50.5779 132.521 50.5765 132.435 50.586C132.296 50.6012 132.168 50.6436 132.054 50.7074C131.941 50.7709 131.839 50.8577 131.756 50.9663C131.747 50.978 131.738 50.9898 131.73 51.0018L112.358 78.4923ZM120.598 83.0583L114.803 81.5053C114.269 81.3624 113.724 81.668 113.584 82.1879C113.445 82.7078 113.765 83.2451 114.298 83.388L120.094 84.9409C120.627 85.0839 121.173 84.7783 121.312 84.2584C121.451 83.7385 121.132 83.2012 120.598 83.0583Z" fill="#FFCB5B"/>
<path d="M132.333 53.6072C132.837 53.7993 133.325 53.9733 133.793 54.1298L133.554 51.4906L132.333 53.6072Z" fill="#F1B244"/>
<path d="M62.8472 34.8864C63.2881 34.947 63.7417 35.0016 64.2061 35.0487L64.0075 32.8556C64.0063 32.841 64.0048 32.8265 64.0029 32.812L62.8472 34.8864Z" fill="#F1B244"/>
<path d="M45.9366 75.9489C47.3745 77.1454 49.0286 78.0062 50.8044 78.482C52.5803 78.9579 54.4431 79.0395 56.2866 78.7222C58.1301 78.4049 59.9182 77.6949 61.5486 76.6328C63.1791 75.5707 64.6201 74.1772 65.7893 72.532C66.9585 70.8868 67.8331 69.022 68.3631 67.0441L67.011 66.6818C67.0393 66.5765 67.0497 66.4644 67.0393 66.3493L64.6351 39.7884C63.9412 39.7319 63.266 39.6599 62.6137 39.5757L65.0189 66.148C62.9219 70.5574 56.1696 78.6908 45.9366 75.9489Z" fill="#F1B244"/>
<path d="M44.8696 62.7668L50.6651 64.3198C51.1986 64.4627 51.5181 65 51.3788 65.5199C51.2395 66.0398 50.6941 66.3454 50.1607 66.2024L44.3651 64.6495C43.8317 64.5066 43.5121 63.9693 43.6514 63.4494C43.7907 62.9295 44.3361 62.6239 44.8696 62.7668Z" fill="#FFE27A"/>
<path fill-rule="evenodd" clip-rule="evenodd" d="M42.811 59.8573C42.7444 59.9519 42.6974 60.0541 42.6692 60.1594L41.3172 59.7971C40.7872 61.775 40.6122 63.8273 40.8021 65.8367C40.9921 67.8461 41.5433 69.7734 42.4243 71.5084C43.3052 73.2435 44.4987 74.7524 45.9366 75.9489C56.1696 78.6908 62.9219 70.5574 65.0189 66.148L44.6613 60.6932L62.8472 34.8864L64.0029 32.812C63.9857 32.6766 63.9406 32.5504 63.874 32.4385C63.8075 32.3265 63.7174 32.2255 63.6053 32.1433C63.5353 32.0918 63.4584 32.0491 63.3766 32.0167C63.3025 31.9873 63.2262 31.9671 63.1493 31.9558C63.0622 31.9429 62.9743 31.9415 62.8879 31.9511C62.7497 31.9662 62.6212 32.0086 62.5076 32.0724C62.3939 32.136 62.2918 32.2228 62.2092 32.3314C62.2003 32.343 62.1917 32.3548 62.1834 32.3668L42.811 59.8573ZM50.6651 64.3198L44.8696 62.7668C44.3361 62.6239 43.7907 62.9295 43.6514 63.4494C43.5121 63.9693 43.8317 64.5066 44.3651 64.6495L50.1607 66.2024C50.6941 66.3454 51.2395 66.0398 51.3788 65.5199C51.5181 65 51.1986 64.4627 50.6651 64.3198Z" fill="#FFCB5B"/>
</svg>
