<svg width="101" height="101" viewBox="0 0 101 101" fill="none" xmlns="http://www.w3.org/2000/svg">
<path d="M98.6516 63.1782C91.5045 89.8515 64.0877 105.681 37.4144 98.5335C10.7411 91.3864 -5.08804 63.9696 2.05905 37.2963C9.20614 10.623 36.623 -5.20614 63.2963 1.94095C89.9696 9.08804 105.799 36.5049 98.6516 63.1782Z" fill="#FFCA3F"/>
<path d="M29.9035 75.0486C31.9417 67.4418 39.7606 62.9275 47.3674 64.9658L61.6774 68.8001C69.2843 70.8384 73.7985 78.6573 71.7603 86.2641C71.1779 88.4375 68.9439 89.7272 66.7706 89.1449L32.7843 80.0383C30.6109 79.4559 29.3211 77.222 29.9035 75.0486Z" fill="#58576D"/>
<path d="M46.4731 64.7261L62.5718 69.0398L61.2777 73.8694C60.8012 75.6476 58.9735 76.7029 57.1952 76.2264L47.536 73.6382C45.7578 73.1618 44.7025 71.334 45.179 69.5558L46.4731 64.7261Z" fill="white"/>
<path fill-rule="evenodd" clip-rule="evenodd" d="M34.6238 40.8456C36.7792 41.4231 38.0721 43.5873 37.5115 45.6793C37.0336 47.4629 37.4082 48.7147 38.0279 49.6051C38.708 50.5823 39.881 51.3891 41.3164 51.7737C42.7517 52.1583 44.1709 52.0461 45.2485 51.5399C46.2303 51.0786 47.1807 50.1818 47.6586 48.3982C48.2192 46.3062 50.4209 45.0784 52.5763 45.656C54.7318 46.2335 56.0246 48.3976 55.4641 50.4897C54.4195 54.3879 51.984 57.1513 48.8385 58.629C45.7887 60.0618 42.3392 60.1675 39.2864 59.3496C36.2336 58.5316 33.2991 56.7152 31.3743 53.9495C29.3891 51.097 28.6615 47.4861 29.7061 43.5878C30.2666 41.4958 32.4683 40.2681 34.6238 40.8456Z" fill="#59586E"/>
<path fill-rule="evenodd" clip-rule="evenodd" d="M68.4312 49.9043C70.5866 50.4818 71.8795 52.6459 71.3189 54.7379C70.841 56.5216 71.2156 57.7734 71.8353 58.6638C72.5154 59.641 73.6884 60.4477 75.1238 60.8323C76.5591 61.2169 77.9783 61.1048 79.0559 60.5985C80.0377 60.1373 80.9881 59.2405 81.466 57.4569C82.0266 55.3648 84.2283 54.1371 86.3837 54.7146C88.5392 55.2922 89.832 57.4563 89.2715 59.5483C88.2269 63.4466 85.7914 66.21 82.6459 67.6877C79.5961 69.1205 76.1466 69.2262 73.0938 68.4082C70.041 67.5902 67.1065 65.7739 65.1817 63.0082C63.1965 60.1557 62.4689 56.5448 63.5135 52.6465C64.074 50.5545 66.2758 49.3267 68.4312 49.9043Z" fill="#59586E"/>
<path d="M32.0688 79.8466L54.3808 85.8251C53.1855 81.3789 49.7173 77.6736 44.9503 76.3963C40.1832 75.119 35.3271 76.5938 32.0688 79.8466Z" fill="#FF005D"/>
</svg>
