<svg width="55" height="90" viewBox="0 0 55 90" fill="none" xmlns="http://www.w3.org/2000/svg">
<path d="M55 1.41642C51.3669 0.431191 47.5838 -0.040061 43.6508 0.00266363C35.6295 0.00266363 28.2481 2.05064 21.5068 6.14665C14.7654 10.1573 9.4748 15.576 5.6348 22.4026C1.79477 29.2293 -0.0825449 36.6533 0.00278223 44.6747C0.173467 53.0373 2.22144 60.6747 6.14679 67.5866C10.1574 74.4133 15.4481 79.7893 22.0188 83.7146C28.6748 87.64 35.8854 89.56 43.6508 89.4746C47.5838 89.3891 51.3669 88.8325 55 87.8047V59.203C54.6953 59.5787 54.3682 59.9412 54.0188 60.2906C51.2881 63.1067 47.9601 64.5146 44.0348 64.5146C40.1094 64.5146 36.7815 63.1067 34.0508 60.2906C31.3201 57.4746 29.9548 53.8053 29.9548 49.2826C29.9548 44.6747 31.3201 40.9626 34.0508 38.1466C36.7815 35.3307 40.1094 33.9226 44.0348 33.9226C47.9601 33.9226 51.2881 35.3307 54.0188 38.1466C54.3682 38.507 54.6953 38.882 55 39.2717V1.41642Z" fill="#E4DDC7"/>
</svg>
