<svg width="73" height="109" viewBox="0 0 73 109" fill="none" xmlns="http://www.w3.org/2000/svg">
<path d="M0 107.195V31.2763C1.05123 31.5217 2.14747 31.7837 3.28872 32.0622C4.93522 25.3211 6.42144 20.1849 7.74736 16.6535C9.10091 13.0046 10.5324 10.2109 12.0418 8.27227C13.5063 6.2611 15.4355 4.51415 17.8295 3.03136C20.3686 1.45873 23.0633 0.542533 25.9137 0.282767C28.8366 -0.021981 31.6387 0.450736 34.3201 1.70086C37.0015 2.95092 39.2184 4.99065 40.9708 7.81994C42.9478 11.012 43.8989 15.1405 43.824 20.2056C43.7768 25.1533 42.8197 32.5214 40.9528 42.3099C56.5984 47.4751 66.1287 52.8144 69.5435 58.3279C71.7452 61.8826 72.653 65.5361 72.2669 69.2883C71.9084 72.9231 69.6979 75.9986 65.6353 78.5149C62.8061 80.2672 58.4425 81.1631 52.5448 81.2024C46.647 81.2418 39.9286 80.6854 32.3894 79.5331C27.4386 95.849 22.279 105.669 16.9107 108.994C16.9076 108.996 16.9046 108.998 16.9016 109H2.16802C1.40684 108.474 0.684171 107.872 0 107.195Z" fill="#F0D8C0"/>
</svg>
