<svg width="56" height="90" viewBox="0 0 56 90" fill="none" xmlns="http://www.w3.org/2000/svg">
<path d="M56 1.70171C52.0624 0.522324 47.946 -0.0440226 43.6508 0.00266641C35.6295 0.00266641 28.2481 2.05067 21.5068 6.14666C14.7654 10.1573 9.4748 15.576 5.6348 22.4027C1.79477 29.2293 -0.0825449 36.6533 0.00278223 44.6747C0.173467 53.0373 2.22144 60.6747 6.14679 67.5867C10.1574 74.4133 15.4481 79.7893 22.0188 83.7147C28.6748 87.64 35.8854 89.56 43.6508 89.4747C47.946 89.3813 52.0624 88.726 56 87.5087V57.7948C55.4476 58.6903 54.7872 59.5222 54.0188 60.2907C51.2881 63.1067 47.9601 64.5147 44.0348 64.5147C40.1094 64.5147 36.7815 63.1067 34.0508 60.2907C31.3201 57.4747 29.9548 53.8053 29.9548 49.2827C29.9548 44.6747 31.3201 40.9627 34.0508 38.1467C36.7815 35.3307 40.1094 33.9227 44.0348 33.9227C47.9601 33.9227 51.2881 35.3307 54.0188 38.1467C54.7874 38.9392 55.4478 39.8028 56 40.7373V1.70171Z" fill="#E4DDC7"/>
</svg>
