<svg width="88" height="90" viewBox="0 0 88 90" fill="none" xmlns="http://www.w3.org/2000/svg">
<path d="M43.6508 89.4747C35.8855 89.56 28.6748 87.64 22.0188 83.7147C15.4481 79.7893 10.1574 74.4133 6.14678 67.5867C2.22145 60.6747 0.173449 53.0373 0.00278261 44.6747C-0.0825507 36.6533 1.79478 29.2293 5.63478 22.4027C9.47478 15.576 14.7654 10.1573 21.5068 6.14666C28.2481 2.05067 35.6295 0.00266691 43.6508 0.00266691C51.5015 -0.0826704 58.7548 1.88 65.4108 5.89067C72.1521 9.90133 77.4854 15.4053 81.4108 22.4027C85.3361 29.4 87.2988 37.1227 87.2988 45.5707C87.2988 53.5067 85.3361 60.8027 81.4108 67.4587C77.4854 74.1147 72.1521 79.4053 65.4108 83.3307C58.7548 87.256 51.5015 89.304 43.6508 89.4747ZM44.0348 64.5147C47.9601 64.5147 51.2881 63.1067 54.0188 60.2907C56.8348 57.4747 58.2001 53.8053 58.1148 49.2827C58.1148 44.6747 56.7495 40.9627 54.0188 38.1467C51.2881 35.3307 47.9601 33.9227 44.0348 33.9227C40.1095 33.9227 36.7815 35.3307 34.0508 38.1467C31.3201 40.9627 29.9548 44.6747 29.9548 49.2827C29.9548 53.8053 31.3201 57.4747 34.0508 60.2907C36.7815 63.1067 40.1095 64.5147 44.0348 64.5147Z" fill="#E4DDC7"/>
</svg>
