<svg width="45" height="90" viewBox="0 0 45 90" fill="none" xmlns="http://www.w3.org/2000/svg">
<path d="M0 89.4771C0.216495 89.4779 0.433424 89.4771 0.650787 89.4747C8.50145 89.304 15.7548 87.256 22.4108 83.3307C29.1521 79.4053 34.4855 74.1147 38.4108 67.4587C42.3361 60.8027 44.2988 53.5067 44.2988 45.5707C44.2988 37.1227 42.3361 29.4 38.4108 22.4027C34.4855 15.4053 29.1521 9.90133 22.4108 5.89067C15.7548 1.87999 8.50145 -0.0826752 0.650787 0.00266723C0.433388 0.00266723 0.216459 0.00417785 0 0.00718383V33.9562C0.340189 33.9338 0.685117 33.9227 1.03479 33.9227C4.96012 33.9227 8.28812 35.3307 11.0188 38.1467C13.7495 40.9627 15.1148 44.6747 15.1148 49.2827C15.2001 53.8053 13.8348 57.4747 11.0188 60.2907C8.28812 63.1067 4.96012 64.5147 1.03479 64.5147C0.685117 64.5147 0.340189 64.5035 0 64.4812V89.4771Z" fill="#E4DDC7"/>
</svg>
