<svg width="87" height="54" viewBox="0 0 87 54" fill="none" xmlns="http://www.w3.org/2000/svg">
<path d="M78.5423 -1.53172e-10C76.2941 2.72844 73.6037 5.79778 70.471 9.20801C81.0524 21.8373 86.343 31.3947 86.343 37.88C86.343 42.0613 85.191 45.6453 82.887 48.632C80.6684 51.5333 77.1697 52.984 72.391 52.984C69.063 52.984 64.8817 51.448 59.847 48.376C54.8124 45.304 49.3937 41.2934 43.591 36.344C30.791 47.608 21.2337 53.24 14.919 53.24C10.3964 53.24 6.94038 51.832 4.55104 49.016C2.16171 46.1147 0.967041 42.488 0.967041 38.136C0.967041 31.5653 6.30038 21.9227 16.967 9.20801C13.9595 5.79948 11.3854 2.73014 9.24471 -3.85367e-08L78.5423 -1.53172e-10Z" fill="#F0D8C0"/>
</svg>
