<svg width="110" height="110" viewBox="0 0 110 110" fill="none" xmlns="http://www.w3.org/2000/svg">
<g filter="url(#filter0_di_17_585)">
<path d="M61.4291 9.37013C61.806 8.46018 62 7.48491 62 6.5L47 6.5C47 7.48491 47.194 8.46018 47.5709 9.37013C47.7362 9.7693 47.9354 10.1525 48.1656 10.5157C48.4602 10.9804 48.8058 11.4124 49.1967 11.8033C49.8931 12.4997 50.7199 13.0522 51.6299 13.4291C52.5398 13.806 53.5151 14 54.5 14C55.4849 14 56.4602 13.806 57.3701 13.4291C58.2801 13.0522 59.1069 12.4997 59.8033 11.8033C60.2305 11.3761 60.6036 10.8998 60.9152 10.3853C61.1115 10.0611 61.2834 9.72185 61.4291 9.37013Z" fill="#669BBC"/>
<path d="M61.4291 100.63C61.806 101.54 62 102.515 62 103.5H47C47 102.515 47.194 101.54 47.5709 100.63C47.7362 100.231 47.9354 99.8475 48.1656 99.4843C48.4602 99.0196 48.8058 98.5876 49.1967 98.1967C49.8931 97.5003 50.7199 96.9478 51.6299 96.5709C52.5398 96.194 53.5151 96 54.5 96C55.4849 96 56.4602 96.194 57.3701 96.5709C58.2801 96.9478 59.1069 97.5003 59.8033 98.1967C60.2305 98.6239 60.6036 99.1002 60.9152 99.6147C61.1115 99.9389 61.2834 100.278 61.4291 100.63Z" fill="#669BBC"/>
<path fill-rule="evenodd" clip-rule="evenodd" d="M55 105C82.6142 105 105 82.6142 105 55C105 27.3858 82.6142 5 55 5C27.3858 5 5 27.3858 5 55C5 82.6142 27.3858 105 55 105ZM100 55C100 77.8478 82.9725 96.7185 60.9152 99.6147C60.6036 99.1002 60.2305 98.6239 59.8033 98.1967C59.1069 97.5003 58.2801 96.9478 57.3701 96.5709C56.4602 96.194 55.4849 96 54.5 96C53.5151 96 52.5398 96.194 51.6299 96.5709C50.7199 96.9478 49.8931 97.5003 49.1967 98.1967C48.8058 98.5876 48.4602 99.0196 48.1656 99.4843C26.5562 96.1918 10 77.5294 10 55C10 32.4706 26.5562 13.8082 48.1656 10.5157C48.4602 10.9804 48.8058 11.4124 49.1967 11.8033C49.8931 12.4997 50.7199 13.0522 51.6299 13.4291C52.5398 13.806 53.5151 14 54.5 14C55.4849 14 56.4602 13.806 57.3701 13.4291C58.2801 13.0522 59.1069 12.4997 59.8033 11.8033C60.2305 11.3761 60.6036 10.8998 60.9152 10.3853C82.9725 13.2815 100 32.1522 100 55Z" fill="#669BBC"/>
</g>
<defs>
<filter id="filter0_di_17_585" x="0" y="0" width="110" height="110" filterUnits="userSpaceOnUse" color-interpolation-filters="sRGB">
<feFlood flood-opacity="0" result="BackgroundImageFix"/>
<feColorMatrix in="SourceAlpha" type="matrix" values="0 0 0 0 0 0 0 0 0 0 0 0 0 0 0 0 0 0 127 0" result="hardAlpha"/>
<feOffset/>
<feGaussianBlur stdDeviation="2.5"/>
<feComposite in2="hardAlpha" operator="out"/>
<feColorMatrix type="matrix" values="0 0 0 0 0 0 0 0 0 0 0 0 0 0 0 0 0 0 0.25 0"/>
<feBlend mode="normal" in2="BackgroundImageFix" result="effect1_dropShadow_17_585"/>
<feBlend mode="normal" in="SourceGraphic" in2="effect1_dropShadow_17_585" result="shape"/>
<feColorMatrix in="SourceAlpha" type="matrix" values="0 0 0 0 0 0 0 0 0 0 0 0 0 0 0 0 0 0 127 0" result="hardAlpha"/>
<feOffset/>
<feGaussianBlur stdDeviation="2.5"/>
<feComposite in2="hardAlpha" operator="arithmetic" k2="-1" k3="1"/>
<feColorMatrix type="matrix" values="0 0 0 0 0 0 0 0 0 0 0 0 0 0 0 0 0 0 0.25 0"/>
<feBlend mode="normal" in2="shape" result="effect2_innerShadow_17_585"/>
</filter>
</defs>
</svg>
