<svg width="212" height="148" viewBox="0 0 212 148" fill="none" xmlns="http://www.w3.org/2000/svg">
<g clip-path="url(#clip0_20_1056)">
<path d="M178.615 57.4642L177.019 59.7662C176.923 59.9044 176.868 60.0667 176.86 60.2347C176.851 60.4027 176.89 60.5697 176.972 60.7168C177.053 60.864 177.174 60.9853 177.321 61.0672C177.468 61.1491 177.635 61.1883 177.803 61.1803L180.601 61.0468L182.297 63.2757C182.398 63.4097 182.536 63.5125 182.693 63.5725C182.85 63.6325 183.021 63.6473 183.186 63.6152C183.351 63.5831 183.504 63.5053 183.627 63.3908C183.751 63.2763 183.84 63.1296 183.884 62.9672L184.621 60.265L187.265 59.3407C187.424 59.2853 187.564 59.1865 187.67 59.0555C187.775 58.9245 187.842 58.7666 187.863 58.5996C187.883 58.4326 187.857 58.2633 187.786 58.1106C187.715 57.958 187.603 57.8282 187.462 57.736L185.12 56.1995L185.058 53.3994C185.055 53.2312 185.004 53.0673 184.912 52.9264C184.82 52.7855 184.691 52.6731 184.538 52.602C184.386 52.5309 184.216 52.5039 184.049 52.524C183.882 52.5442 183.724 52.6108 183.593 52.7161L181.408 54.4685L178.726 53.6623C178.565 53.6139 178.394 53.6116 178.231 53.6555C178.069 53.6994 177.922 53.7879 177.807 53.9109C177.692 54.0339 177.614 54.1866 177.582 54.3516C177.55 54.5167 177.564 54.6875 177.623 54.8448L178.615 57.4642ZM139.93 46.9654L137.015 51.1703C136.919 51.3085 136.864 51.4708 136.855 51.6388C136.847 51.8068 136.885 51.9739 136.967 52.121C137.049 52.2682 137.17 52.3896 137.317 52.4714C137.464 52.5533 137.631 52.5925 137.799 52.5844L142.91 52.3405L146.008 56.4125C146.456 57.0022 147.398 56.8273 147.595 56.1039L148.942 51.1678L153.772 49.4793C154.476 49.2333 154.594 48.2838 153.969 47.8747L149.691 45.068L149.578 39.9526C149.575 39.7844 149.524 39.6205 149.432 39.4796C149.34 39.3386 149.211 39.2263 149.058 39.1551C148.906 39.084 148.736 39.057 148.569 39.0772C148.402 39.0974 148.244 39.1639 148.113 39.2693L144.121 42.4707L139.221 40.9976C138.508 40.7828 137.855 41.4821 138.119 42.1799L139.93 46.9654ZM170.546 112.182L167.197 109.984L167.108 105.979C167.105 105.811 167.054 105.647 166.962 105.507C166.87 105.366 166.741 105.253 166.588 105.182C166.436 105.111 166.266 105.084 166.099 105.104C165.932 105.124 165.774 105.191 165.643 105.296L162.518 107.803L158.682 106.649C158.521 106.601 158.349 106.598 158.187 106.642C158.025 106.686 157.878 106.775 157.763 106.898C157.648 107.021 157.57 107.174 157.538 107.339C157.505 107.504 157.52 107.675 157.579 107.832L158.997 111.578L156.715 114.871C156.287 115.488 156.76 116.32 157.499 116.285L161.5 116.094L163.926 119.282C164.377 119.875 165.317 119.693 165.513 118.973L166.568 115.109L170.35 113.787C170.508 113.731 170.648 113.632 170.754 113.501C170.859 113.37 170.926 113.212 170.947 113.045C170.967 112.878 170.94 112.709 170.87 112.557C170.799 112.404 170.687 112.274 170.546 112.182Z" fill="#003049"/>
<path d="M113.689 55.6968C115.494 56.5384 117.64 55.7576 118.481 53.9527C119.323 52.1478 118.542 50.0024 116.737 49.1608C114.932 48.3191 112.787 49.1 111.945 50.9049C111.104 52.7098 111.885 54.8552 113.689 55.6968Z" fill="#C1121F"/>
<path d="M148.02 131.383C149.825 132.225 151.971 131.444 152.812 129.639C153.654 127.834 152.873 125.689 151.068 124.847C149.263 124.006 147.118 124.787 146.276 126.592C145.435 128.396 146.216 130.542 148.02 131.383Z" fill="#C1121F"/>
<path d="M198.592 63.4591C199.946 64.0903 201.555 63.5047 202.186 62.1511C202.817 60.7975 202.231 59.1885 200.878 58.5573C199.524 57.9261 197.915 58.5117 197.284 59.8653C196.653 61.2189 197.238 62.8279 198.592 63.4591Z" fill="#C1121F"/>
<path d="M183.895 86.4449C185.249 87.0761 186.858 86.4905 187.489 85.1369C188.12 83.7833 187.535 82.1743 186.181 81.5431C184.827 80.9119 183.218 81.4975 182.587 82.8511C181.956 84.2047 182.542 85.8137 183.895 86.4449Z" fill="#C1121F"/>
<path d="M130.837 33.854C132.191 34.4852 133.8 33.8996 134.431 32.546C135.062 31.1923 134.477 29.5833 133.123 28.9521C131.77 28.3209 130.161 28.9066 129.529 30.2602C128.898 31.6138 129.484 33.2228 130.837 33.854Z" fill="#C1121F"/>
<path d="M121.822 117.178C123.175 117.809 124.784 117.223 125.416 115.87C126.047 114.516 125.461 112.907 124.108 112.276C122.754 111.645 121.145 112.23 120.514 113.584C119.883 114.937 120.468 116.546 121.822 117.178Z" fill="#C1121F"/>
<path d="M170.016 69.6234C172.818 68.6035 175.928 70.0536 176.948 72.8559C177.968 75.6583 176.518 78.7684 173.715 79.7884L169.48 81.33C169.368 81.37 169.265 81.4318 169.177 81.5117C169.089 81.5916 169.018 81.6881 168.968 81.7956C168.917 81.9031 168.888 82.0195 168.883 82.1382C168.878 82.2568 168.896 82.3754 168.937 82.487C168.977 82.5986 169.04 82.7011 169.12 82.7886C169.2 82.876 169.297 82.9467 169.405 82.9966C169.513 83.0465 169.629 83.0746 169.748 83.0793C169.867 83.084 169.985 83.0652 170.097 83.024L174.332 81.4824C178.069 80.1224 180.002 75.9759 178.642 72.2393C177.282 68.5027 173.136 66.5692 169.399 67.9292L143.907 77.2075C144.136 77.7636 144.359 78.3218 144.577 78.8821L170.016 69.6234ZM160.386 61.6166C166.472 59.4017 169.606 52.6833 167.39 46.5966C167.308 46.3732 167.14 46.1916 166.924 46.0915C166.708 45.9914 166.461 45.9809 166.237 46.0624C166.013 46.1439 165.83 46.3106 165.729 46.5262C165.628 46.7418 165.616 46.9888 165.696 47.2131C167.57 52.3626 164.92 58.0479 159.77 59.9224L139.119 67.4387C139.428 67.964 139.73 68.4939 140.023 69.0282L160.386 61.6166ZM170.486 97.2717C170.568 97.4964 170.735 97.6793 170.952 97.7804C171.169 97.8814 171.417 97.8923 171.641 97.8105C171.866 97.7288 172.049 97.5612 172.15 97.3445C172.251 97.1279 172.262 96.8799 172.18 96.6553C169.97 90.5832 163.232 87.4414 157.16 89.6513L148.786 92.699C148.912 93.2941 149.03 93.891 149.139 94.4894L157.777 91.3454C162.915 89.4755 168.616 92.1343 170.486 97.2717ZM134.314 92.1192C132.951 89.0459 131.708 85.7893 130.628 82.4437L115.173 75.2366L109.907 80.7383L134.314 92.1192ZM127.264 62.6033L116.489 73.8613L129.912 80.1204C128.428 75.0838 126.797 67.8039 127.264 62.6033ZM99.1341 91.9945L90.5425 100.972L126.944 104.963L99.1341 91.9945ZM143.723 95.5009C143.642 95.2763 143.653 95.0284 143.754 94.8118C143.855 94.5952 144.038 94.4275 144.262 94.3457L148.786 92.699C147.81 88.0765 146.301 83.3022 144.577 78.8823L138.674 81.0311C138.449 81.1128 138.201 81.102 137.985 81.001C137.768 80.9 137.6 80.7171 137.518 80.4924C137.437 80.2678 137.447 80.0199 137.549 79.8032C137.65 79.5866 137.832 79.4189 138.057 79.3371L143.907 77.2079C142.69 74.2521 141.377 71.49 140.023 69.0285L134.974 70.8662C134.863 70.9068 134.745 70.925 134.626 70.9198C134.508 70.9147 134.392 70.8863 134.285 70.8362C134.177 70.7862 134.081 70.7155 134.001 70.6282C133.921 70.5409 133.859 70.4387 133.819 70.3275C133.778 70.2163 133.76 70.0982 133.765 69.9799C133.77 69.8616 133.799 69.7456 133.849 69.6383C133.899 69.531 133.969 69.4346 134.057 69.3547C134.144 69.2747 134.246 69.2127 134.357 69.1723L139.119 67.4392C137.644 64.9382 134.669 60.3658 132.045 59.1421C131.452 58.8657 130.979 58.8209 130.635 58.9461C129.592 59.3258 128.642 61.6699 129.106 67.1097C129.543 72.2341 131.111 78.7041 133.522 85.3285C138.985 100.337 145.793 108.295 148.269 107.395C149.907 106.798 150.504 102.009 149.138 94.4897L144.878 96.0401C144.654 96.1217 144.406 96.1107 144.189 96.0096C143.973 95.9085 143.805 95.7255 143.723 95.5009ZM135.489 94.6566L108.591 82.1137L100.45 90.619L132.522 105.574L143.336 106.76C140.256 103.694 137.379 98.5729 135.489 94.6566Z" fill="#FDF0D5"/>
</g>
<path d="M30.0742 21.2469L30.5476 24.0076C30.5761 24.1734 30.5575 24.3438 30.4942 24.4996C30.4308 24.6554 30.3251 24.7904 30.189 24.8893C30.0529 24.9882 29.8919 25.047 29.7241 25.0591C29.5564 25.0713 29.3885 25.0363 29.2396 24.958L26.7605 23.6547L24.2814 24.958C24.1326 25.0364 23.9647 25.0716 23.7969 25.0595C23.629 25.0474 23.4679 24.9886 23.3318 24.8897C23.1957 24.7908 23.09 24.6557 23.0266 24.4998C22.9633 24.3439 22.9449 24.1734 22.9734 24.0076L23.4469 21.2469L21.4412 19.2918C21.3207 19.1744 21.2354 19.0256 21.1951 18.8623C21.1548 18.699 21.1609 18.5276 21.2129 18.3676C21.2649 18.2076 21.3606 18.0653 21.4893 17.9569C21.6179 17.8485 21.7743 17.7782 21.9408 17.7541L24.7127 17.3514L25.9523 14.8398C26.0267 14.6889 26.1418 14.5618 26.2847 14.4729C26.4276 14.384 26.5925 14.3369 26.7607 14.3369C26.929 14.3369 27.0939 14.384 27.2368 14.4729C27.3796 14.5618 27.4948 14.6889 27.5691 14.8398L28.8086 17.3514L31.5803 17.7543C31.7467 17.7785 31.9031 17.8488 32.0317 17.9572C32.1603 18.0657 32.256 18.2079 32.3079 18.3679C32.3599 18.5278 32.3661 18.6992 32.3258 18.8625C32.2855 19.0258 32.2003 19.1746 32.0799 19.292L30.0742 21.2469ZM69.5717 28.0807L70.4367 33.1236C70.4652 33.2894 70.4467 33.4599 70.3834 33.6158C70.32 33.7716 70.2143 33.9066 70.0782 34.0055C69.9421 34.1044 69.781 34.1632 69.6132 34.1753C69.4454 34.1874 69.2776 34.1523 69.1287 34.074L64.5996 31.693L60.0707 34.074C59.415 34.4189 58.6359 33.8627 58.7627 33.1236L59.6277 28.0807L55.9637 24.509C55.4299 23.9887 55.7248 23.0785 56.4633 22.9715L61.5268 22.2357L63.7912 17.6475C63.8656 17.4965 63.9807 17.3694 64.1236 17.2805C64.2664 17.1916 64.4313 17.1445 64.5996 17.1445C64.7679 17.1445 64.9328 17.1916 65.0756 17.2805C65.2185 17.3694 65.3336 17.4965 65.408 17.6475L67.6725 22.2357L72.7359 22.9715C73.4736 23.0785 73.7699 23.9883 73.2355 24.509L69.5717 28.0807ZM14.2621 74.2478L18.2264 73.6719L19.9992 70.0795C20.0736 69.9286 20.1888 69.8016 20.3316 69.7127C20.4745 69.6239 20.6394 69.5768 20.8076 69.5768C20.9758 69.5768 21.1407 69.6239 21.2836 69.7127C21.4264 69.8016 21.5416 69.9286 21.616 70.0795L23.3889 73.6719L27.3531 74.2478C27.5196 74.272 27.676 74.3422 27.8047 74.4507C27.9333 74.5591 28.029 74.7014 28.081 74.8614C28.133 75.0214 28.1392 75.1927 28.0988 75.356C28.0585 75.5194 27.9732 75.6681 27.8527 75.7855L24.9842 78.5818L25.6613 82.5301C25.7883 83.2703 25.0082 83.825 24.3533 83.4805L20.8074 81.6164L17.2615 83.4805C16.6018 83.8275 15.8273 83.2654 15.9535 82.5301L16.6307 78.5818L13.7621 75.7855C13.6417 75.6681 13.5566 75.5193 13.5164 75.3559C13.4761 75.1926 13.4824 75.0213 13.5344 74.8614C13.5864 74.7014 13.6821 74.5592 13.8107 74.4508C13.9393 74.3424 14.0957 74.2721 14.2621 74.2478Z" fill="#003049"/>
<path d="M89.6635 47.084C87.672 47.084 86.0576 45.4696 86.0576 43.4781C86.0576 41.4867 87.672 39.8723 89.6635 39.8723C91.6549 39.8723 93.2693 41.4867 93.2693 43.4781C93.2693 45.4696 91.6549 47.084 89.6635 47.084Z" fill="#C1121F"/>
<path d="M26.5625 101.171C24.5711 101.171 22.9567 99.5561 22.9567 97.5646C22.9567 95.5732 24.5711 93.9588 26.5625 93.9588C28.554 93.9588 30.1684 95.5732 30.1684 97.5646C30.1684 99.5561 28.554 101.171 26.5625 101.171Z" fill="#C1121F"/>
<path d="M9.43517 18.2377C7.94163 18.2377 6.73087 17.0269 6.73087 15.5334C6.73087 14.0399 7.94163 12.8291 9.43517 12.8291C10.9287 12.8291 12.1395 14.0399 12.1395 15.5334C12.1395 17.0269 10.9287 18.2377 9.43517 18.2377Z" fill="#C1121F"/>
<path d="M13.0408 45.2811C11.5473 45.2811 10.3365 44.0703 10.3365 42.5768C10.3365 41.0832 11.5473 39.8725 13.0408 39.8725C14.5344 39.8725 15.7451 41.0832 15.7451 42.5768C15.7451 44.0703 14.5344 45.2811 13.0408 45.2811Z" fill="#C1121F"/>
<path d="M83.3533 20.0406C81.8598 20.0406 80.649 18.8299 80.649 17.3363C80.649 15.8428 81.8598 14.632 83.3533 14.632C84.8469 14.632 86.0576 15.8428 86.0576 17.3363C86.0576 18.8299 84.8469 20.0406 83.3533 20.0406Z" fill="#C1121F"/>
<path d="M56.3102 99.3676C54.8166 99.3676 53.6059 98.1568 53.6059 96.6633C53.6059 95.1697 54.8166 93.959 56.3102 93.959C57.8037 93.959 59.0145 95.1697 59.0145 96.6633C59.0145 98.1568 57.8037 99.3676 56.3102 99.3676Z" fill="#C1121F"/>
<path d="M32.7289 35.9012C30.6201 33.7926 27.1887 33.7924 25.0801 35.9012C22.9713 38.01 22.9713 41.4417 25.0801 43.5505L28.2672 46.7376C28.3516 46.8211 28.4187 46.9205 28.4646 47.0301C28.5105 47.1396 28.5343 47.2572 28.5346 47.3759C28.5349 47.4947 28.5117 47.6124 28.4664 47.7222C28.4211 47.832 28.3545 47.9317 28.2706 48.0157C28.1866 48.0997 28.0868 48.1663 27.977 48.2116C27.8672 48.2569 27.7495 48.28 27.6307 48.2797C27.512 48.2794 27.3944 48.2555 27.2849 48.2096C27.1753 48.1637 27.0759 48.0966 26.9924 48.0122L23.8053 44.8251C20.9936 42.0133 20.9936 37.4382 23.8053 34.6264C26.617 31.8147 31.1922 31.8147 34.0039 34.6264L53.1863 53.8089C52.7441 54.2162 52.3057 54.6277 51.8711 55.0432L32.7289 35.9012ZM44.8398 32.7141C40.2603 28.1348 40.2596 20.7216 44.8398 16.1415C45.0092 15.9739 45.238 15.8802 45.4762 15.8809C45.7144 15.8815 45.9427 15.9764 46.1111 16.1448C46.2796 16.3132 46.3745 16.5415 46.3752 16.7797C46.3758 17.0179 46.2822 17.2467 46.1146 17.4161C42.2398 21.2911 42.2389 27.5637 46.1146 31.4393L61.6541 46.9788C61.1518 47.3241 60.6547 47.677 60.1629 48.0372L44.8398 32.7141ZM20.618 60.7604C20.4489 60.9295 20.2197 61.0244 19.9806 61.0245C19.7416 61.0245 19.5123 60.9295 19.3433 60.7605C19.1742 60.5915 19.0792 60.3622 19.0792 60.1232C19.0792 59.8841 19.1741 59.6549 19.3432 59.4858C23.9123 54.9167 31.3469 54.9169 35.916 59.4858L42.217 65.7868C41.8515 66.273 41.4928 66.7643 41.1412 67.2606L34.6412 60.7606C30.7748 56.8944 24.484 56.8946 20.618 60.7604ZM55.5789 71.3778C58.1129 69.1684 60.6158 66.7422 63.008 64.1663H80.0613L82.5084 71.3778H55.5789ZM74.4422 47.6067L79.4496 62.3635H64.6395C68.1125 58.4258 72.6678 52.5174 74.4422 47.6067ZM87.515 86.1323L91.5078 97.8993L56.8301 86.1323H87.515ZM45.6215 70.4659C45.7905 70.2968 45.8854 70.0676 45.8854 69.8286C45.8854 69.5895 45.7905 69.3603 45.6215 69.1913L42.217 65.7868C45.0551 62.0098 48.4404 58.3206 51.8709 55.0434L56.3133 59.4858C56.4823 59.6549 56.7116 59.7498 56.9506 59.7499C57.1897 59.7499 57.4189 59.6549 57.588 59.4859C57.757 59.3169 57.852 59.0876 57.852 58.8486C57.8521 58.6095 57.7571 58.3802 57.5881 58.2112L53.1861 53.8092C55.5385 51.6448 57.8959 49.6964 60.1629 48.0376L63.9623 51.837C64.046 51.9207 64.1454 51.9871 64.2547 52.0325C64.3641 52.0778 64.4813 52.1011 64.5997 52.1011C64.7181 52.1011 64.8353 52.0778 64.9447 52.0325C65.0541 51.9871 65.1534 51.9207 65.2371 51.837C65.3208 51.7533 65.3873 51.654 65.4326 51.5446C65.4779 51.4353 65.5012 51.318 65.5012 51.1997C65.5012 51.0813 65.4779 50.9641 65.4326 50.8547C65.3873 50.7454 65.3208 50.646 65.2371 50.5624L61.6541 46.9794C64.0475 45.3358 68.6762 42.4491 71.5717 42.4491C72.2256 42.4491 72.6734 42.6085 72.9322 42.8673C73.7174 43.6524 73.5875 46.1782 70.8682 50.9124C68.3064 55.3719 64.1506 60.5729 59.1658 65.5577C47.8723 76.8512 38.3389 81.1866 36.4756 79.3243C35.2426 78.0913 36.7254 73.4989 41.1414 67.261L44.3469 70.4665C44.516 70.6353 44.7453 70.7301 44.9843 70.73C45.2233 70.7299 45.4525 70.6349 45.6215 70.4659ZM53.4414 73.1807H83.1203L86.9033 84.3294H51.5168L41.2143 80.8335C45.3014 79.3571 50.0732 75.9313 53.4414 73.1807Z" fill="#FDF0D5"/>
<path d="M67.3024 23.9894C64.4495 34.6368 68.9144 45.5415 77.6344 51.476C79.9752 53.0691 82.6226 54.304 85.5174 55.0796L83.3332 63.2309C65.0951 58.344 54.2216 39.7846 59.0466 21.7773L59.9676 18.3404C61.4754 12.7131 67.318 9.38928 73.0174 10.9164L93.6569 16.4468C99.3563 17.9739 102.754 23.7737 101.246 29.401L93.7731 57.2917L85.5174 55.0796L92.9907 27.1889C93.2922 26.0634 92.6126 24.9035 91.4727 24.598L70.8333 19.0677C69.6934 18.7623 68.5249 19.427 68.2233 20.5525L67.3024 23.9894Z" fill="#FE8544"/>
<path fill-rule="evenodd" clip-rule="evenodd" d="M107.808 61.0524L116.064 63.2645L113.88 71.4158C132.118 76.3027 150.814 65.6665 155.639 47.6592L156.56 44.2223C158.068 38.595 154.67 32.7952 148.971 31.268L128.331 25.7377C122.632 24.2105 116.789 27.5343 115.281 33.1616L107.808 61.0524ZM147.383 45.4471C144.53 56.0944 135.211 63.3057 124.692 64.0851C121.869 64.2944 118.958 64.0401 116.064 63.2645L123.537 35.3738C123.839 34.2483 125.007 33.5835 126.147 33.889L146.786 39.4193C147.926 39.7247 148.606 40.8847 148.304 42.0101L147.383 45.4471Z" fill="#FE8544"/>
<path d="M84.0619 73.7209L108.416 80.2466L108.03 93.2478L78.3089 85.2841L84.0619 73.7209Z" fill="#FE8544"/>
<path d="M83.8832 11.6438C84.7879 8.26741 88.2935 6.27312 91.7131 7.18942L134.643 18.6925C138.063 19.6088 140.102 23.0887 139.197 26.465L130.242 59.8853C126.201 74.9664 110.543 83.8742 95.2683 79.7814C79.9938 75.6886 70.8873 60.1451 74.9283 45.064L83.8832 11.6438Z" fill="#FFB43F"/>
<path d="M104.532 32.6473C106.325 29.9082 110.629 31.0616 110.813 34.3304L110.953 36.8162C111.035 38.278 112.059 39.5273 113.49 39.9107L115.922 40.5625C119.121 41.4197 119.369 45.8179 116.283 46.9809L113.937 47.8654C112.557 48.3855 111.678 49.7274 111.76 51.1893L111.9 53.6751C112.083 56.9439 107.932 58.5088 105.841 55.9588L104.252 54.0196C103.317 52.8792 101.749 52.4593 100.369 52.9794L98.0231 53.8639C94.9375 55.0269 92.1246 51.5959 93.9181 48.8569L95.2819 46.774C96.084 45.549 95.994 43.9476 95.0591 42.8072L93.4693 40.868C91.3787 38.318 93.7917 34.6326 96.9908 35.4898L99.4235 36.1416C100.854 36.525 102.366 35.9552 103.168 34.7302L104.532 32.6473Z" fill="#FDF0D5"/>
<path d="M62.3695 91.9338C63.8774 86.3065 69.72 82.9827 75.4194 84.5099L110.919 94.022C116.619 95.5492 120.017 101.349 118.509 106.976L116.871 113.09C116.268 115.341 113.931 116.67 111.651 116.059L63.7673 103.229C61.4875 102.618 60.1283 100.298 60.7314 98.0473L62.3695 91.9338Z" fill="#58576C"/>
<defs>
<clipPath id="clip0_20_1056">
<rect width="100" height="100" fill="white" transform="translate(121.262 15) rotate(25)"/>
</clipPath>
</defs>
</svg>
