<svg width="208" height="125" viewBox="0 0 208 125" fill="none" xmlns="http://www.w3.org/2000/svg">
<g filter="url(#filter0_di_10_234)">
<path d="M119.399 22.2337C119.399 27.0317 117.623 32.1569 114.071 37.6093C110.629 42.9526 104.523 50.3132 95.7533 59.6912C109.519 75.8302 116.402 88.0434 116.402 96.331C116.402 101.674 114.903 106.254 111.906 110.071C109.019 113.778 104.468 115.632 98.2511 115.632C93.9216 115.632 88.4819 113.669 81.932 109.744C75.3822 105.818 68.3328 100.693 60.7838 94.3681C44.1317 108.762 31.6981 115.959 23.483 115.959C17.5992 115.959 13.1032 114.16 9.99477 110.562C6.88637 106.854 5.33217 102.219 5.33217 96.6581C5.33217 88.2615 12.2706 75.9392 26.1473 59.6912C17.8213 50.4223 12.0485 43.1161 8.82912 37.7728C5.60971 32.3205 4 27.1408 4 22.2337C4 15.6909 6.16478 10.6202 10.4943 7.02164C14.9349 3.31405 20.1526 1.46025 26.1473 1.46025C30.0328 1.46025 33.4188 2.00549 36.3052 3.09595C39.1915 4.18643 42.4109 6.20379 45.9634 9.14805C49.6269 12.0923 54.678 16.7813 61.1168 23.2151C67.5557 16.9994 72.7178 12.4195 76.6033 9.4752C80.5998 6.42189 84.0968 4.35 87.0942 3.25953C90.0916 2.06001 93.422 1.46025 97.0855 1.46025C100.971 1.46025 104.579 2.2781 107.909 3.9138C111.351 5.54951 114.126 7.94854 116.235 11.1109C118.345 14.2732 119.399 17.9808 119.399 22.2337Z" fill="url(#paint0_linear_10_234)"/>
<path d="M146.329 116.126C136.069 116.236 126.542 113.744 117.747 108.65C109.065 103.555 102.075 96.578 96.7758 87.718C91.5894 78.7472 88.8834 68.835 88.6579 57.9814C88.5452 47.5709 91.0256 37.9356 96.0993 29.0755C101.173 20.2154 108.163 13.1828 117.071 7.9775C125.978 2.66148 135.731 0.00346127 146.329 0.00346127C156.702 -0.107295 166.286 2.43997 175.08 7.64526C183.987 12.8505 191.034 19.994 196.22 29.0755C201.407 38.1571 204 48.18 204 59.1443C204 69.4441 201.407 78.9133 196.22 87.5518C191.034 96.1904 183.987 103.057 175.08 108.151C166.286 113.246 156.702 115.904 146.329 116.126ZM146.836 83.7309C152.023 83.7309 156.42 81.9036 160.028 78.2488C163.749 74.594 165.553 69.8317 165.44 63.962C165.44 57.9814 163.636 53.1638 160.028 49.509C156.42 45.8542 152.023 44.0268 146.836 44.0268C141.65 44.0268 137.253 45.8542 133.645 49.509C130.037 53.1638 128.233 57.9814 128.233 63.962C128.233 69.8317 130.037 74.594 133.645 78.2488C137.253 81.9036 141.65 83.7309 146.836 83.7309Z" fill="url(#paint1_linear_10_234)"/>
</g>
<defs>
<filter id="filter0_di_10_234" x="0" y="0" width="208" height="124.129" filterUnits="userSpaceOnUse" color-interpolation-filters="sRGB">
<feFlood flood-opacity="0" result="BackgroundImageFix"/>
<feColorMatrix in="SourceAlpha" type="matrix" values="0 0 0 0 0 0 0 0 0 0 0 0 0 0 0 0 0 0 127 0" result="hardAlpha"/>
<feOffset dy="4"/>
<feGaussianBlur stdDeviation="2"/>
<feComposite in2="hardAlpha" operator="out"/>
<feColorMatrix type="matrix" values="0 0 0 0 0 0 0 0 0 0 0 0 0 0 0 0 0 0 0.25 0"/>
<feBlend mode="normal" in2="BackgroundImageFix" result="effect1_dropShadow_10_234"/>
<feBlend mode="normal" in="SourceGraphic" in2="effect1_dropShadow_10_234" result="shape"/>
<feColorMatrix in="SourceAlpha" type="matrix" values="0 0 0 0 0 0 0 0 0 0 0 0 0 0 0 0 0 0 127 0" result="hardAlpha"/>
<feOffset dy="4"/>
<feGaussianBlur stdDeviation="2"/>
<feComposite in2="hardAlpha" operator="arithmetic" k2="-1" k3="1"/>
<feColorMatrix type="matrix" values="0 0 0 0 0 0 0 0 0 0 0 0 0 0 0 0 0 0 0.25 0"/>
<feBlend mode="normal" in2="shape" result="effect2_innerShadow_10_234"/>
</filter>
<linearGradient id="paint0_linear_10_234" x1="121.736" y1="57.5051" x2="4.00671" y2="58.3941" gradientUnits="userSpaceOnUse">
<stop stop-color="#C1121F"/>
<stop offset="1" stop-color="#780000"/>
</linearGradient>
<linearGradient id="paint1_linear_10_234" x1="204.346" y1="57.5051" x2="88.5616" y2="57.5051" gradientUnits="userSpaceOnUse">
<stop stop-color="#003049"/>
<stop offset="1" stop-color="#0073AF"/>
</linearGradient>
</defs>
</svg>
