<svg width="60" height="60" viewBox="0 0 60 60" fill="none" xmlns="http://www.w3.org/2000/svg">
<path d="M60 30C60 46.5685 46.5685 60 30 60C13.4315 60 0 46.5685 0 30C0 13.4315 13.4315 0 30 0C46.5685 0 60 13.4315 60 30Z" fill="#FFCA3F"/>
<path d="M15 30H50V30.5C50 40.165 42.165 48 32.5 48C22.835 48 15 40.165 15 30.5V30Z" fill="#58576D"/>
<path d="M34.8807 47.8394C34.1023 47.9453 33.3075 48 32.5 48C27.9388 48 23.7852 46.255 20.6703 43.3962C21.8508 40.8029 24.4648 39 27.5 39C31.6421 39 35 42.3579 35 46.5C35 46.9572 34.9591 47.4048 34.8807 47.8394Z" fill="#FF005D"/>
<path d="M30 30H40V33C40 34.1046 39.1046 35 38 35H32C30.8954 35 30 34.1046 30 33V30Z" fill="white"/>
<path d="M14 17.5C14 16.1194 15.1193 15 16.5 15H51.5C52.8807 15 54 16.1194 54 17.5C54 18.8806 52.8807 20 51.5 20H50V23C50 25.7615 47.7614 28 45 28H40C37.2386 28 35 25.7615 35 23V20H33V23C33 25.7615 30.7614 28 28 28H23C20.2386 28 18 25.7615 18 23V20H16.5C15.1193 20 14 18.8806 14 17.5Z" fill="#00A1FF"/>
</svg>
