<svg width="60" height="60" viewBox="0 0 60 60" fill="none" xmlns="http://www.w3.org/2000/svg">
<path d="M5.12821 13.5273C5.12821 20.1411 9.40927 25.7676 15.3846 27.8528C16.9886 28.4126 18.7147 28.7172 20.5128 28.7172V33.7805C9.1839 33.7805 0 24.7128 0 13.5273V11.3924C0 7.89693 2.86997 5.06329 6.41026 5.06329H19.2308C22.7711 5.06329 25.641 7.89693 25.641 11.3924V28.7172H20.5128V11.3924C20.5128 10.6933 19.9388 10.1266 19.2308 10.1266H6.41026C5.7022 10.1266 5.12821 10.6933 5.12821 11.3924V13.5273Z" fill="#FE8544"/>
<path fill-rule="evenodd" clip-rule="evenodd" d="M34.359 28.7172H39.4872V33.7805C50.8161 33.7805 60 24.7128 60 13.5273V11.3924C60 7.89693 57.13 5.06329 53.5897 5.06329H40.7692C37.2289 5.06329 34.359 7.89693 34.359 11.3924V28.7172ZM54.8718 13.5273C54.8718 20.1411 50.5907 25.7676 44.6154 27.8528C43.0114 28.4126 41.2853 28.7172 39.4872 28.7172V11.3924C39.4872 10.6933 40.0612 10.1266 40.7692 10.1266H53.5897C54.2978 10.1266 54.8718 10.6933 54.8718 11.3924V13.5273Z" fill="#FE8544"/>
<path d="M22.5641 39.7468H37.6923L39.4872 47.3418H21.0256L22.5641 39.7468Z" fill="#FE8544"/>
<path d="M12.8205 3.79747C12.8205 1.70018 14.5425 0 16.6667 0H43.3333C45.4575 0 47.1795 1.70018 47.1795 3.79747V24.557C47.1795 33.9248 39.488 41.519 30 41.519C20.512 41.519 12.8205 33.9248 12.8205 24.557V3.79747Z" fill="#FFB43F"/>
<path d="M28.0491 12.7636C28.6632 10.8977 31.3368 10.8977 31.9509 12.7636L32.4178 14.1826C32.6925 15.0171 33.4801 15.5821 34.3687 15.5821H35.8798C37.867 15.5821 38.6932 18.0927 37.0856 19.2459L35.863 20.1229C35.1441 20.6386 34.8433 21.5528 35.1179 22.3872L35.5848 23.8062C36.1989 25.6721 34.0358 27.2238 32.4282 26.0706L31.2057 25.1936C30.4868 24.6779 29.5132 24.6779 28.7943 25.1936L27.5718 26.0706C25.9642 27.2238 23.8011 25.6721 24.4152 23.8062L24.8821 22.3872C25.1567 21.5528 24.8559 20.6386 24.137 20.1229L22.9144 19.2459C21.3068 18.0927 22.133 15.5821 24.1202 15.5821H25.6313C26.5199 15.5821 27.3075 15.0171 27.5822 14.1826L28.0491 12.7636Z" fill="white"/>
<path d="M12.8205 53.6709C12.8205 50.1754 15.6905 47.3418 19.2308 47.3418H41.2821C44.8223 47.3418 47.6923 50.1754 47.6923 53.6709V57.4684C47.6923 58.8665 46.5443 60 45.1282 60H15.3846C13.9685 60 12.8205 58.8665 12.8205 57.4684V53.6709Z" fill="#58576C"/>
</svg>
