<svg width="60" height="60" viewBox="0 0 60 60" fill="none" xmlns="http://www.w3.org/2000/svg">
<path d="M41.7474 15.8444C39.6471 14.8391 38.1624 14.7758 37.0862 14.9126C36.5124 14.9855 36.0189 15.1194 35.5154 15.2585C35.4869 15.2664 35.4576 15.2746 35.4274 15.283L35.4264 15.2833C34.9999 15.402 34.4049 15.5676 33.84 15.5676C33.0447 15.5676 32.4 14.9393 32.4 14.1642C32.4 13.3892 33.0447 12.7609 33.84 12.7609C33.9546 12.7609 34.1546 12.7172 34.7296 12.5583L34.7397 12.5555C35.2401 12.4172 35.9129 12.2313 36.7137 12.1295C38.3825 11.9174 40.4712 12.0842 43.124 13.3768L43.217 13.4222L43.3023 13.48C47.3393 16.2169 52.7811 16.5711 54.9584 16.3912C55.7508 16.3258 56.4477 16.8988 56.5148 17.6711C56.582 18.4433 55.994 19.1224 55.2016 19.1879C52.6747 19.3966 46.5298 19.0393 41.7474 15.8444Z" fill="#C87529"/>
<path fill-rule="evenodd" clip-rule="evenodd" d="M29.88 0.123915C29.5053 0.123914 29.1305 0.256396 29.0507 0.989143L23.2684 54.0358L19.5814 56.9594H32.5184C32.9236 56.9594 33.2531 56.5138 33.3384 55.936C33.3871 55.6062 33.189 55.3026 32.9114 55.1082L29.88 52.5155V0.123915Z" fill="#C87529"/>
<path d="M30.7093 1.22304C30.6295 0.49029 30.2547 0.123915 29.88 0.123915V52.5155L32.9114 55.1082C33.189 55.3026 33.3871 55.6062 33.3384 55.936C33.2531 56.5138 32.9236 56.9594 32.5184 56.9594H19.5814L17.9512 58.1487C17.6841 58.3436 17.4943 58.6408 17.5396 58.963C17.6218 59.5474 17.9532 60 18.3616 60H41.6384C42.0436 60 42.3731 59.5543 42.4584 58.9765C42.5071 58.6468 42.309 58.3431 42.0314 58.1488L36.4916 54.2697L30.7093 1.22304Z" fill="#B06328"/>
<path fill-rule="evenodd" clip-rule="evenodd" d="M4.92168 16.3912C4.12923 16.3258 3.43238 16.8988 3.36522 17.6711C6.24554 18.0558 12.7249 18.0428 17.04 14.9126C20.3086 13.0139 22.4093 13.4852 24.8496 14.0326C25.6346 14.2087 26.4546 14.3927 27.36 14.5082C27.36 13.9235 27.36 13.1049 26.0401 12.7609C25.9255 12.7609 25.7254 12.7172 25.1504 12.5583L25.1403 12.5555C24.6399 12.4172 23.9671 12.2313 23.1663 12.1295C21.4976 11.9174 19.4089 12.0842 16.7561 13.3768L16.6631 13.4222L16.5777 13.48C12.5408 16.2169 7.09901 16.5711 4.92168 16.3912Z" fill="#C87529"/>
<path d="M18.1327 15.8444C20.233 14.8391 21.7176 14.7758 22.7938 14.9126C23.3676 14.9855 23.8611 15.1194 24.3647 15.2585L24.412 15.2717L24.4485 15.2818L24.4534 15.2832L24.4537 15.2833C24.8802 15.402 25.4751 15.5676 26.0401 15.5676C26.8354 15.5676 27.12 15.2585 27.36 14.5082C26.4546 14.3927 25.6346 14.2087 24.8496 14.0326C22.4093 13.4852 20.3086 13.0139 17.04 14.9126C12.7249 18.0428 6.24554 18.0558 3.36522 17.6711C3.29807 18.4433 3.88603 19.1224 4.67848 19.1879C7.20533 19.3966 13.3503 19.0393 18.1327 15.8444Z" fill="#B06328"/>
<path fill-rule="evenodd" clip-rule="evenodd" d="M55.0783 16.3912C55.8708 16.3258 56.5676 16.8988 56.6348 17.6711C53.7545 18.0558 47.2751 18.0428 42.96 14.9126C39.6914 13.0139 37.5907 13.4852 35.1504 14.0326C34.3654 14.2087 33.5454 14.3927 32.64 14.5082C32.64 13.9235 32.64 13.1049 33.9599 12.7609C34.0745 12.7609 34.2746 12.7172 34.8496 12.5583L34.8597 12.5555C35.3601 12.4172 36.0329 12.2313 36.8337 12.1295C38.5024 11.9174 40.5911 12.0842 43.2439 13.3768L43.3369 13.4222L43.4223 13.48C47.4592 16.2169 52.901 16.571 55.0783 16.3912Z" fill="#C87529"/>
<path d="M41.8673 15.8444C39.767 14.8391 38.2824 14.7758 37.2062 14.9126C36.6324 14.9855 36.1389 15.1194 35.6353 15.2585L35.5879 15.2717L35.5515 15.2818L35.5466 15.2832L35.5463 15.2833C35.1198 15.402 34.5249 15.5676 33.9599 15.5676C33.1646 15.5676 32.88 15.2585 32.64 14.5082C33.5454 14.3927 34.3654 14.2087 35.1504 14.0326C37.5907 13.4852 39.6914 13.0139 42.96 14.9126C47.2751 18.0428 53.7545 18.0558 56.6348 17.6711C56.7019 18.4433 56.114 19.1224 55.3215 19.1879C52.7947 19.3966 46.6497 19.0393 41.8673 15.8444Z" fill="#B06328"/>
<path d="M30 20.2385C32.651 20.2385 34.8 18.1442 34.8 15.5607C34.8 13.9586 33.9735 12.5446 32.7134 11.7015C33.369 12.871 33.9744 15.5357 31.8 17.5488C29.4 19.7708 26.4211 18.3674 25.9906 18.1335C26.8492 19.4017 28.3243 20.2385 30 20.2385Z" fill="#F1B244"/>
<path d="M28.08 14.2743C28.08 14.5972 27.8114 14.859 27.48 14.859C27.1486 14.859 26.88 14.5972 26.88 14.2743C26.88 13.9514 27.1486 13.6896 27.48 13.6896C27.8114 13.6896 28.08 13.9514 28.08 14.2743Z" fill="#FFE27A"/>
<path fill-rule="evenodd" clip-rule="evenodd" d="M30 10.8829C27.349 10.8829 25.2 12.9772 25.2 15.5607C25.2 16.5112 25.4909 17.3954 25.9906 18.1335C26.4211 18.3674 29.4 19.7708 31.8 17.5488C33.9744 15.5357 33.369 12.871 32.7134 11.7015C31.9416 11.1851 31.007 10.8829 30 10.8829ZM27.48 14.859C27.8114 14.859 28.08 14.5972 28.08 14.2743C28.08 13.9514 27.8114 13.6896 27.48 13.6896C27.1486 13.6896 26.88 13.9514 26.88 14.2743C26.88 14.5972 27.1486 14.859 27.48 14.859Z" fill="#FFCB5B"/>
<path d="M48.3855 42.6816C49.4046 43.1517 50.4969 43.3937 51.6 43.3937C52.7031 43.3937 53.7954 43.1517 54.8145 42.6816C55.8337 42.2114 56.7597 41.5223 57.5397 40.6535C58.3197 39.7848 58.9384 38.7534 59.3606 37.6183C59.7827 36.4833 60 35.2667 60 34.0381H59.1602C59.1602 33.9727 59.1488 33.9061 59.1249 33.841L53.7592 19.2355C53.3619 19.2326 52.929 19.2181 52.4674 19.1888L57.9227 34.0381C57.4321 36.9193 54.8378 42.6816 48.3855 42.6816Z" fill="#F1B244"/>
<path d="M45.96 35.2076H49.56C49.8914 35.2076 50.16 35.4693 50.16 35.7923C50.16 36.1152 49.8914 36.377 49.56 36.377H45.96C45.6286 36.377 45.36 36.1152 45.36 35.7923C45.36 35.4693 45.6286 35.2076 45.96 35.2076Z" fill="#FFE27A"/>
<path fill-rule="evenodd" clip-rule="evenodd" d="M44.0751 33.841C44.0512 33.9061 44.0398 33.9727 44.0398 34.0381H43.2C43.2 35.2667 43.4173 36.4833 43.8394 37.6183C44.2616 38.7534 44.8803 39.7848 45.6603 40.6535C46.4403 41.5223 47.3663 42.2114 48.3855 42.6816C54.8378 42.6816 57.4321 36.9193 57.9227 34.0381H45.2773L51.7877 16.3167L52.1665 14.9004C52.1636 14.8921 52.1604 14.8839 52.1571 14.8758C52.1261 14.8 52.0804 14.7339 52.0244 14.6794C51.9684 14.6248 51.9006 14.5803 51.8228 14.55C51.7742 14.5311 51.7231 14.5182 51.6706 14.5121C51.6231 14.5066 51.5758 14.5068 51.5294 14.5121C51.4769 14.5182 51.4258 14.5311 51.3772 14.55C51.2994 14.5803 51.2316 14.6248 51.1756 14.6794C51.1196 14.7339 51.0739 14.8 51.0429 14.8758C51.0396 14.8839 51.0364 14.8921 51.0334 14.9004L44.0751 33.841ZM49.56 35.2076H45.96C45.6286 35.2076 45.36 35.4693 45.36 35.7923C45.36 36.1152 45.6286 36.377 45.96 36.377H49.56C49.8914 36.377 50.16 36.1152 50.16 35.7923C50.16 35.4693 49.8914 35.2076 49.56 35.2076Z" fill="#FFCB5B"/>
<path d="M51.7877 16.3167C52.1093 16.3498 52.4193 16.3748 52.7148 16.3928L52.1665 14.9004L51.7877 16.3167Z" fill="#F1B244"/>
<path d="M8.60946 16.2575C8.87435 16.2242 9.14571 16.1854 9.42217 16.1406L8.96655 14.9004C8.96359 14.8921 8.96044 14.8839 8.95711 14.8758L8.60946 16.2575Z" fill="#F1B244"/>
<path d="M5.18546 42.6816C6.20459 43.1517 7.2969 43.3937 8.4 43.3937C9.5031 43.3937 10.5954 43.1517 11.6145 42.6816C12.6337 42.2114 13.5597 41.5223 14.3397 40.6535C15.1197 39.7848 15.7384 38.7534 16.1606 37.6183C16.5827 36.4833 16.8 35.2667 16.8 34.0381H15.9602C15.9602 33.9727 15.9488 33.9061 15.9249 33.841L10.4069 18.8209C9.99596 18.8959 9.59344 18.959 9.20228 19.0115L14.7227 34.0381C14.1921 36.9193 11.5418 42.6816 5.18546 42.6816Z" fill="#F1B244"/>
<path d="M2.52 35.2076H6.12C6.45137 35.2076 6.72 35.4693 6.72 35.7923C6.72 36.1152 6.45137 36.377 6.12 36.377H2.52C2.18863 36.377 1.92 36.1152 1.92 35.7923C1.92 35.4693 2.18863 35.2076 2.52 35.2076Z" fill="#FFE27A"/>
<path fill-rule="evenodd" clip-rule="evenodd" d="M0.875111 33.841C0.851184 33.9061 0.839833 33.9727 0.839835 34.0381H0C0 35.2667 0.217272 36.4833 0.639412 37.6183C1.06155 38.7534 1.68029 39.7848 2.4603 40.6535C3.24031 41.5223 4.16632 42.2114 5.18546 42.6816C11.5418 42.6816 14.1921 36.9193 14.7227 34.0381H2.07729L8.60946 16.2575L8.95711 14.8758C8.92607 14.8 8.88037 14.7339 8.82436 14.6794C8.76843 14.6248 8.70056 14.5803 8.62279 14.55C8.57422 14.5311 8.52306 14.5182 8.47059 14.5121C8.42311 14.5066 8.37575 14.5068 8.32941 14.5121C8.27694 14.5182 8.22577 14.5311 8.1772 14.55C8.09944 14.5803 8.03157 14.6248 7.97563 14.6794C7.91963 14.7339 7.87393 14.8 7.84289 14.8758C7.83956 14.8839 7.83641 14.8921 7.83345 14.9004L0.875111 33.841ZM6.12 35.2076H2.52C2.18863 35.2076 1.92 35.4693 1.92 35.7923C1.92 36.1152 2.18863 36.377 2.52 36.377H6.12C6.45137 36.377 6.72 36.1152 6.72 35.7923C6.72 35.4693 6.45137 35.2076 6.12 35.2076Z" fill="#FFCB5B"/>
</svg>
