<svg width="75" height="76" viewBox="0 0 75 76" fill="none" xmlns="http://www.w3.org/2000/svg">
<path d="M75 37.6292C75 58.3398 58.2107 75.1292 37.5 75.1292C16.7893 75.1292 0 58.3398 0 37.6292C0 16.9185 16.7893 0.12915 37.5 0.12915C58.2107 0.12915 75 16.9185 75 37.6292Z" fill="#CCC7B8"/>
<path d="M37.5 25.1292C37.5 28.5809 34.7018 31.3792 31.25 31.3792C27.7982 31.3792 25 28.5809 25 25.1292C25 21.6774 27.7982 18.8792 31.25 18.8792C34.7018 18.8792 37.5 21.6774 37.5 25.1292Z" fill="#59586E"/>
<path d="M62.5 25.1292C62.5 28.5809 59.7018 31.3792 56.25 31.3792C52.7982 31.3792 50 28.5809 50 25.1292C50 21.6774 52.7982 18.8792 56.25 18.8792C59.7018 18.8792 62.5 21.6774 62.5 25.1292Z" fill="#59586E"/>
<path d="M18.75 37.6292H62.5V38.2542C62.5 50.3354 52.7062 60.1292 40.625 60.1292C28.5438 60.1292 18.75 50.3354 18.75 38.2542V37.6292Z" fill="#58576D"/>
<path d="M43.6009 59.9284C42.6278 60.0608 41.6344 60.1292 40.625 60.1292C34.9235 60.1292 29.7315 57.9479 25.8379 54.3744C27.3135 51.1328 30.5811 48.8792 34.375 48.8792C39.5527 48.8792 43.75 53.0765 43.75 58.2542C43.75 58.8256 43.6989 59.3852 43.6009 59.9284Z" fill="#FF005D"/>
<path d="M37.5 37.6292H50V41.3792C50 42.7599 48.8807 43.8792 47.5 43.8792H40C38.6193 43.8792 37.5 42.7599 37.5 41.3792V37.6292Z" fill="#FDF0D5"/>
</svg>
