<svg width="60" height="61" viewBox="0 0 60 61" fill="none" xmlns="http://www.w3.org/2000/svg">
<path d="M50.25 44.7854C49 46.4486 45.375 50.1491 43 51.2718C45.5 55.8871 46.625 59.3797 48.5 59.8787C50.375 60.3776 53.375 60.3776 53.125 57.5087C52.925 55.2135 51.0833 48.0286 50.25 44.7854Z" fill="#59586E"/>
<path d="M9.88968 44.7854C11.1397 46.4486 14.7646 50.1491 17.1397 51.2718C14.6396 55.8871 13.5147 59.3797 11.6397 59.8787C9.76468 60.3776 6.76467 60.3776 7.01467 57.5087C7.21467 55.2135 9.05634 48.0286 9.88968 44.7854Z" fill="#59586E"/>
<path d="M55 30.0663C55 43.8445 43.8071 55.0139 30 55.0139C16.1929 55.0139 5 43.8445 5 30.0663C5 16.2881 16.1929 5.11867 30 5.11867C43.8071 5.11867 55 16.2881 55 30.0663Z" fill="#CCC7B8"/>
<path d="M47 30.0663C47 39.4355 39.3888 47.0307 30 47.0307C20.6112 47.0307 13 39.4355 13 30.0663C13 20.6971 20.6112 13.1019 30 13.1019C39.3888 13.1019 47 20.6971 47 30.0663Z" fill="#FDF0D5"/>
<path d="M28.1988 19.5172C28.563 17.2835 31.7826 17.2835 32.1468 19.5172L33.68 28.9185C33.7206 29.0327 33.7514 29.1528 33.7713 29.2779L34.3846 33.1422C34.5898 34.4349 33.5136 35.5714 32.2087 35.4402L24.5507 34.6699C22.5058 34.4642 22.0645 31.6837 23.9456 30.8575L26.5348 29.7203L28.1988 19.5172Z" fill="#CCC7B8"/>
<path d="M24.2075 5.79176C14.8072 8.01719 7.46143 15.5393 5.51074 25.0247C5.34586 25.0589 5.17502 25.0768 5 25.0768C3.61929 25.0768 2.5 23.9598 2.5 22.582C2.5 21.9306 2.75018 21.3375 3.15991 20.8932C1.19424 18.6894 0 15.7854 0 12.603C0 5.71386 5.59644 0.12915 12.5 0.12915C15.4333 0.12915 18.1306 1.13741 20.2629 2.82558C20.7127 2.39186 21.3251 2.12496 22 2.12496C23.3807 2.12496 24.5 3.24188 24.5 4.61972C24.5 5.04333 24.3942 5.44233 24.2075 5.79176Z" fill="#CCC7B8"/>
<path d="M35.7925 5.79176C45.1928 8.01719 52.5386 15.5393 54.4893 25.0247C54.6541 25.0589 54.825 25.0768 55 25.0768C56.3807 25.0768 57.5 23.9598 57.5 22.582C57.5 21.9306 57.2498 21.3375 56.8401 20.8932C58.8058 18.6894 60 15.7854 60 12.603C60 5.71386 54.4036 0.12915 47.5 0.12915C44.5667 0.12915 41.8694 1.13741 39.7371 2.82558C39.2873 2.39186 38.6749 2.12496 38 2.12496C36.6193 2.12496 35.5 3.24188 35.5 4.61972C35.5 5.04333 35.6058 5.44233 35.7925 5.79176Z" fill="#CCC7B8"/>
</svg>
