<svg width="75" height="75" viewBox="0 0 75 75" fill="none" xmlns="http://www.w3.org/2000/svg">
<path d="M75 37.5C75 58.2107 58.2107 75 37.5 75C16.7893 75 0 58.2107 0 37.5C0 16.7893 16.7893 0 37.5 0C58.2107 0 75 16.7893 75 37.5Z" fill="#CCC7B8"/>
<path d="M18.75 37.5H62.5V38.125C62.5 50.2062 52.7062 60 40.625 60C28.5438 60 18.75 50.2062 18.75 38.125V37.5Z" fill="#58576D"/>
<path d="M43.6009 59.7993C42.6278 59.9316 41.6344 60 40.625 60C34.9235 60 29.7315 57.8188 25.8379 54.2453C27.3135 51.0037 30.5811 48.75 34.375 48.75C39.5527 48.75 43.75 52.9473 43.75 58.125C43.75 58.6965 43.6989 59.256 43.6009 59.7993Z" fill="#FF005D"/>
<path d="M37.5 37.5H50V41.25C50 42.6307 48.8807 43.75 47.5 43.75H40C38.6193 43.75 37.5 42.6307 37.5 41.25V37.5Z" fill="#FDF0D5"/>
<path d="M17.5 21.875C17.5 20.1492 18.8991 18.75 20.625 18.75H64.375C66.1009 18.75 67.5 20.1492 67.5 21.875C67.5 23.6008 66.1009 25 64.375 25H62.5V28.75C62.5 32.2018 59.7018 35 56.25 35H50C46.5482 35 43.75 32.2018 43.75 28.75V25H41.25V28.75C41.25 32.2018 38.4518 35 35 35H28.75C25.2982 35 22.5 32.2018 22.5 28.75V25H20.625C18.8991 25 17.5 23.6008 17.5 21.875Z" fill="#00A1FF"/>
</svg>
