<svg width="31" height="26" viewBox="0 0 31 26" fill="none" xmlns="http://www.w3.org/2000/svg">
<path d="M13.3619 6.49719C13.3619 3.053 16.1649 0.25 19.609 0.25C23.0533 0.25 25.8562 3.053 25.8562 6.49719C25.8562 9.94138 23.0533 12.7444 19.609 12.7444C16.1649 12.7444 13.3619 9.94138 13.3619 6.49719Z" fill="#669BBC"/>
<path d="M30.4681 20.1975V24.8799C30.4681 25.3976 30.0475 25.8182 29.5299 25.8182H9.68826C9.1706 25.8182 8.75 25.3976 8.75 24.8799V20.1975C8.75 18.4533 9.42943 16.8121 10.6618 15.5768C11.8971 14.3414 13.5354 13.662 15.2825 13.6591C15.3596 13.6591 15.4361 13.6796 15.5031 13.7179C16.7472 14.4267 18.1678 14.8032 19.609 14.8032C21.0502 14.8032 22.4709 14.4267 23.7151 13.7179C23.7819 13.6796 23.8585 13.6591 23.9357 13.6591C25.6797 13.6591 27.321 14.3414 28.5563 15.5768C29.7886 16.8121 30.4681 18.4533 30.4681 20.1975Z" fill="#669BBC"/>
<path d="M11.359 0.25C7.91486 0.25 5.11187 3.053 5.11187 6.49719C5.11187 9.94138 7.91486 12.7444 11.359 12.7444C12.6012 12.7444 13.7601 12.3797 14.734 11.7519C13.0076 10.639 11.8619 8.69916 11.8619 6.49719C11.8619 4.29521 13.0076 2.35532 14.734 1.24244C13.7601 0.614623 12.6012 0.25 11.359 0.25Z" fill="#669BBC"/>
<path d="M8.18826 25.8182C7.6706 25.8182 7.25 25.3976 7.25 24.8799V20.1975C7.25 18.4533 7.92943 16.8121 9.1618 15.5768C9.48515 15.2534 9.8361 14.9682 10.2094 14.7232C9.17013 14.5779 8.16428 14.237 7.25308 13.7179C7.18614 13.6796 7.10959 13.6591 7.03249 13.6591C5.28539 13.662 3.64713 14.3414 2.4118 15.5768C1.17943 16.8121 0.5 18.4533 0.5 20.1975V24.8799C0.5 25.3976 0.920597 25.8182 1.43826 25.8182H8.18826Z" fill="#669BBC"/>
</svg>
