<svg width="88" height="90" viewBox="0 0 88 90" fill="none" xmlns="http://www.w3.org/2000/svg">
<path d="M43.672 89.728C35.9067 89.8133 28.696 87.8933 22.04 83.968C15.4694 80.0426 10.1787 74.6666 6.16802 67.84C2.24269 60.928 0.19469 53.2906 0.0240228 44.928C-0.0613105 36.9066 1.81602 29.4826 5.65602 22.656C9.49602 15.8293 14.7867 10.4106 21.528 6.39996C28.2694 2.30396 35.6507 0.255963 43.672 0.255963C51.5227 0.170625 58.776 2.13329 65.432 6.14396C72.1734 10.1546 77.5067 15.6586 81.432 22.656C85.3574 29.6533 87.32 37.376 87.32 45.824C87.32 53.76 85.3574 61.056 81.432 67.712C77.5067 74.368 72.1734 79.6586 65.432 83.584C58.776 87.5093 51.5227 89.5573 43.672 89.728ZM44.056 64.768C47.9814 64.768 51.3094 63.36 54.04 60.544C56.856 57.728 58.2214 54.0586 58.136 49.536C58.136 44.928 56.7707 41.216 54.04 38.4C51.3094 35.584 47.9814 34.176 44.056 34.176C40.1307 34.176 36.8027 35.584 34.072 38.4C31.3414 41.216 29.976 44.928 29.976 49.536C29.976 54.0586 31.3414 57.728 34.072 60.544C36.8027 63.36 40.1307 64.768 44.056 64.768Z" fill="black"/>
</svg>
