<svg width="29" height="35" viewBox="0 0 29 35" fill="none" xmlns="http://www.w3.org/2000/svg">
<path d="M6.14915 8.32958C6.14915 3.73733 9.88649 0 14.4787 0C19.071 0 22.8083 3.73733 22.8083 8.32958C22.8083 12.9218 19.071 16.6591 14.4787 16.6591C9.88649 16.6591 6.14915 12.9218 6.14915 8.32958Z" fill="#669BBC"/>
<path d="M28.9575 26.5966V32.8399C28.9575 33.5302 28.3966 34.0909 27.7065 34.0909H1.25101C0.560795 34.0909 0 33.5302 0 32.8399V26.5966C0 24.2711 0.905902 22.0829 2.54907 20.4357C4.19617 18.7886 6.38052 17.8827 8.70998 17.8788C8.81279 17.8788 8.91485 17.9062 9.0041 17.9572C10.663 18.9023 12.5571 19.4043 14.4787 19.4043C16.4003 19.4043 18.2945 18.9023 19.9534 17.9572C20.0426 17.9062 20.1447 17.8788 20.2475 17.8788C22.573 17.8788 24.7613 18.7886 26.4085 20.4357C28.0515 22.0829 28.9575 24.2711 28.9575 26.5966Z" fill="#669BBC"/>
</svg>
