<svg width="60" height="49" viewBox="0 0 60 49" fill="none" xmlns="http://www.w3.org/2000/svg">
<path fill-rule="evenodd" clip-rule="evenodd" d="M8.87891 13.1013C11.5382 12.2037 13.4529 9.68861 13.4529 6.72644C13.4529 3.01154 10.4414 0 6.72646 0C3.01154 0 0 3.01154 0 6.72644C0 9.68861 1.91471 12.2037 4.57399 13.1013V36.3229C4.57399 40.0377 7.58551 43.0493 11.3004 43.0493H12.9627C13.3615 46.3837 16.1995 48.9686 19.6412 48.9686H45.2017C48.6436 48.9686 51.4814 46.3837 51.8802 43.0493H53.2736C56.9884 43.0493 60 40.0377 60 36.3229V29.8654C60 26.1505 56.9884 23.139 53.2736 23.139H51.7936C51.1705 20.0687 48.4559 17.7579 45.2017 17.7579H19.6412C16.387 17.7579 13.6726 20.0687 13.0493 23.139H11.3004C10.4468 23.139 9.63029 23.298 8.87891 23.588V13.1013ZM24.7533 37.668C26.9822 37.668 28.7891 35.8611 28.7891 33.6324C28.7891 31.4033 26.9822 29.5964 24.7533 29.5964C22.5244 29.5964 20.7175 31.4033 20.7175 33.6324C20.7175 35.8611 22.5244 37.668 24.7533 37.668ZM39.8207 37.668C42.0495 37.668 43.8563 35.8611 43.8563 33.6324C43.8563 31.4033 42.0495 29.5964 39.8207 29.5964C37.5917 29.5964 35.7848 31.4033 35.7848 33.6324C35.7848 35.8611 37.5917 37.668 39.8207 37.668Z" fill="#003049"/>
</svg>
