<svg width="60" height="60" viewBox="0 0 60 60" fill="none" xmlns="http://www.w3.org/2000/svg">
<path d="M60 30C60 46.5685 46.5685 60 30 60C13.4315 60 0 46.5685 0 30C0 13.4315 13.4315 0 30 0C46.5685 0 60 13.4315 60 30Z" fill="#FFCA3F"/>
<path d="M22 47.5556C22 42.8305 25.8305 39 30.5556 39H39.4444C44.1695 39 48 42.8305 48 47.5556C48 48.9056 46.9056 50 45.5556 50H24.4444C23.0944 50 22 48.9056 22 47.5556Z" fill="#58576D"/>
<path d="M30 39H40V42C40 43.1046 39.1046 44 38 44H32C30.8954 44 30 43.1046 30 42V39Z" fill="white"/>
<path fill-rule="evenodd" clip-rule="evenodd" d="M19.4242 27C20.7631 27 21.8485 28.0534 21.8485 29.3529C21.8485 30.4609 22.26 31.1282 22.7574 31.548C23.3033 32.0087 24.1084 32.2941 25 32.2941C25.8916 32.2941 26.6967 32.0087 27.2426 31.548C27.74 31.1282 28.1515 30.4609 28.1515 29.3529C28.1515 28.0534 29.2369 27 30.5758 27C31.9146 27 33 28.0534 33 29.3529C33 31.7744 32.0176 33.7542 30.4241 35.0991C28.8791 36.403 26.8963 37 25 37C23.1037 37 21.1209 36.403 19.5759 35.0991C17.9824 33.7542 17 31.7744 17 29.3529C17 28.0534 18.0854 27 19.4242 27Z" fill="#59586E"/>
<path fill-rule="evenodd" clip-rule="evenodd" d="M40.4242 27C41.7631 27 42.8485 28.0534 42.8485 29.3529C42.8485 30.4609 43.26 31.1282 43.7574 31.548C44.3033 32.0087 45.1084 32.2941 46 32.2941C46.8916 32.2941 47.6967 32.0087 48.2426 31.548C48.74 31.1282 49.1515 30.4609 49.1515 29.3529C49.1515 28.0534 50.2369 27 51.5758 27C52.9146 27 54 28.0534 54 29.3529C54 31.7744 53.0176 33.7542 51.4241 35.0991C49.8791 36.403 47.8963 37 46 37C44.1037 37 42.1209 36.403 40.5759 35.0991C38.9824 33.7542 38 31.7744 38 29.3529C38 28.0534 39.0854 27 40.4242 27Z" fill="#59586E"/>
<path d="M24 50H37.8595C36.4762 47.6088 33.8909 46 30.9297 46C27.9686 46 25.3832 47.6088 24 50Z" fill="#FF005D"/>
</svg>
