<svg width="60" height="60" viewBox="0 0 60 60" fill="none" xmlns="http://www.w3.org/2000/svg">
<path d="M60 30C60 46.5685 46.5685 60 30 60C13.4315 60 0 46.5685 0 30C0 13.4315 13.4315 0 30 0C46.5685 0 60 13.4315 60 30Z" fill="#FFCA3F"/>
<path d="M30 20C30 22.7614 27.7614 25 25 25C22.2386 25 20 22.7614 20 20C20 17.2386 22.2386 15 25 15C27.7614 15 30 17.2386 30 20Z" fill="#59586E"/>
<path d="M50 20C50 22.7614 47.7614 25 45 25C42.2386 25 40 22.7614 40 20C40 17.2386 42.2386 15 45 15C47.7614 15 50 17.2386 50 20Z" fill="#59586E"/>
<path d="M15 30H50V30.5C50 40.165 42.165 48 32.5 48C22.835 48 15 40.165 15 30.5V30Z" fill="#58576D"/>
<path d="M34.8807 47.8394C34.1023 47.9453 33.3075 48 32.5 48C27.9388 48 23.7852 46.255 20.6703 43.3962C21.8508 40.8029 24.4648 39 27.5 39C31.6421 39 35 42.3579 35 46.5C35 46.9572 34.9591 47.4048 34.8807 47.8394Z" fill="#FF005D"/>
<path d="M30 30H40V33C40 34.1046 39.1046 35 38 35H32C30.8954 35 30 34.1046 30 33V30Z" fill="white"/>
</svg>
