<svg width="60" height="60" viewBox="0 0 60 60" fill="none" xmlns="http://www.w3.org/2000/svg">
<path d="M50.25 44.6562C49 46.3194 45.375 50.02 43 51.1426C45.5 55.7579 46.625 59.2506 48.5 59.7495C50.375 60.2485 53.375 60.2485 53.125 57.3795C52.925 55.0843 51.0833 47.8994 50.25 44.6562Z" fill="#59586E"/>
<path d="M9.88968 44.6562C11.1397 46.3194 14.7646 50.02 17.1397 51.1426C14.6396 55.7579 13.5147 59.2506 11.6397 59.7495C9.76468 60.2485 6.76467 60.2485 7.01467 57.3795C7.21467 55.0843 9.05634 47.8994 9.88968 44.6562Z" fill="#59586E"/>
<path d="M55 29.9371C55 43.7153 43.8071 54.8847 30 54.8847C16.1929 54.8847 5 43.7153 5 29.9371C5 16.159 16.1929 4.98952 30 4.98952C43.8071 4.98952 55 16.159 55 29.9371Z" fill="#019EFA"/>
<path d="M47 29.9371C47 39.3063 39.3888 46.9015 30 46.9015C20.6112 46.9015 13 39.3063 13 29.9371C13 20.568 20.6112 12.9728 30 12.9728C39.3888 12.9728 47 20.568 47 29.9371Z" fill="white"/>
<path d="M28.1988 19.388C28.563 17.1544 31.7826 17.1544 32.1468 19.388L33.68 28.7893C33.7206 28.9036 33.7514 29.0236 33.7713 29.1487L34.3846 33.0131C34.5898 34.3058 33.5136 35.4423 32.2087 35.311L24.5507 34.5407C22.5058 34.3351 22.0645 31.5545 23.9456 30.7283L26.5348 29.5911L28.1988 19.388Z" fill="#019EFA"/>
<path d="M24.2075 5.66261C14.8072 7.88804 7.46143 15.4101 5.51074 24.8955C5.34586 24.9297 5.17502 24.9476 5 24.9476C3.61929 24.9476 2.5 23.8307 2.5 22.4529C2.5 21.8014 2.75018 21.2083 3.15991 20.764C1.19424 18.5603 0 15.6562 0 12.4738C0 5.58471 5.59644 0 12.5 0C15.4333 0 18.1306 1.00826 20.2629 2.69643C20.7127 2.2627 21.3251 1.99581 22 1.99581C23.3807 1.99581 24.5 3.11273 24.5 4.49057C24.5 4.91418 24.3942 5.31318 24.2075 5.66261Z" fill="#FAB13F"/>
<path d="M35.7925 5.66261C45.1928 7.88804 52.5386 15.4101 54.4893 24.8955C54.6541 24.9297 54.825 24.9476 55 24.9476C56.3807 24.9476 57.5 23.8307 57.5 22.4529C57.5 21.8014 57.2498 21.2083 56.8401 20.764C58.8058 18.5603 60 15.6562 60 12.4738C60 5.58471 54.4036 0 47.5 0C44.5667 0 41.8694 1.00826 39.7371 2.69643C39.2873 2.2627 38.6749 1.99581 38 1.99581C36.6193 1.99581 35.5 3.11273 35.5 4.49057C35.5 4.91418 35.6058 5.31318 35.7925 5.66261Z" fill="#FAB13F"/>
</svg>
