<svg width="89" height="90" viewBox="0 0 89 90" fill="none" xmlns="http://www.w3.org/2000/svg">
<path d="M88.704 16.256C88.704 20.0107 87.3387 24.0213 84.608 28.288C81.9627 32.4693 77.2693 38.2293 70.528 45.568C81.1093 58.1973 86.4 67.7547 86.4 74.24C86.4 78.4213 85.248 82.0053 82.944 84.992C80.7253 87.8933 77.2267 89.344 72.448 89.344C69.12 89.344 64.9387 87.808 59.904 84.736C54.8693 81.664 49.4507 77.6533 43.648 72.704C30.848 83.968 21.2907 89.6 14.976 89.6C10.4533 89.6 6.99733 88.192 4.608 85.376C2.21867 82.4747 1.024 78.848 1.024 74.496C1.024 67.9253 6.35733 58.2827 17.024 45.568C10.624 38.3147 6.18667 32.5973 3.712 28.416C1.23733 24.1493 0 20.096 0 16.256C0 11.136 1.664 7.168 4.992 4.35201C8.40533 1.45067 12.416 0 17.024 0C20.0107 0 22.6133 0.426666 24.832 1.28C27.0507 2.13334 29.5253 3.712 32.256 6.016C35.072 8.32 38.9547 11.9893 43.904 17.024C48.8533 12.16 52.8213 8.576 55.808 6.272C58.88 3.88267 61.568 2.26134 63.872 1.408C66.176 0.469335 68.736 0 71.552 0C74.5387 0 77.312 0.639999 79.872 1.92C82.5173 3.2 84.6507 5.07734 86.272 7.552C87.8933 10.0267 88.704 12.928 88.704 16.256Z" fill="black"/>
</svg>
